<svg xmlns="http://www.w3.org/2000/svg" xmlns:xlink="http://www.w3.org/1999/xlink" width="500" zoomAndPan="magnify" viewBox="0 0 375 374.999991" height="500" preserveAspectRatio="xMidYMid meet" version="1.0"><defs><g/><clipPath id="94458db480"><path d="M 33.507812 200.605469 L 350.742188 200.605469 L 350.742188 237.679688 L 33.507812 237.679688 Z M 33.507812 200.605469 " clip-rule="nonzero"/></clipPath></defs><g fill="#3b3937" fill-opacity="1"><g transform="translate(176.410085, 273.355588)"><g><path d="M 73.984375 1.8125 C 59.691406 1.8125 47.816406 -0.972656 38.359375 -6.546875 C 28.898438 -12.117188 21.835938 -19.90625 17.171875 -29.90625 C 12.515625 -39.90625 10.1875 -51.628906 10.1875 -65.078125 C 10.1875 -78.171875 12.515625 -89.71875 17.171875 -99.71875 C 21.835938 -109.71875 28.867188 -117.535156 38.265625 -123.171875 C 47.660156 -128.804688 59.507812 -131.625 73.8125 -131.625 C 87.75 -131.625 98.382812 -129.710938 105.71875 -125.890625 C 113.050781 -122.078125 116.71875 -117.257812 116.71875 -111.4375 C 116.71875 -107.320312 115.234375 -104.050781 112.265625 -101.625 C 109.296875 -99.195312 104.535156 -97.863281 97.984375 -97.625 C 97.984375 -109.132812 96.070312 -117.375 92.25 -122.34375 C 88.4375 -127.3125 81.925781 -129.796875 72.71875 -129.796875 C 63.257812 -129.796875 55.648438 -127.613281 49.890625 -123.25 C 44.140625 -118.894531 39.929688 -111.957031 37.265625 -102.4375 C 34.597656 -92.925781 33.265625 -80.472656 33.265625 -65.078125 C 33.265625 -49.566406 34.75 -37.023438 37.71875 -27.453125 C 40.6875 -17.878906 45.382812 -10.910156 51.8125 -6.546875 C 58.238281 -2.179688 66.601562 0 76.90625 0 C 79.925781 0 82.953125 -0.238281 85.984375 -0.71875 C 89.015625 -1.207031 91.742188 -1.753906 94.171875 -2.359375 L 94.171875 -46 C 94.171875 -54.351562 89.382812 -58.53125 79.8125 -58.53125 L 78.71875 -58.53125 L 78.71875 -60.359375 L 128.71875 -60.359375 L 128.71875 -58.53125 L 127.4375 -58.53125 C 122.957031 -58.53125 119.835938 -57.441406 118.078125 -55.265625 C 116.316406 -53.085938 115.4375 -49.753906 115.4375 -45.265625 L 115.4375 -6.90625 C 109.019531 -4 102.476562 -1.816406 95.8125 -0.359375 C 89.144531 1.085938 81.867188 1.8125 73.984375 1.8125 Z M 73.984375 1.8125 "/></g></g></g><g fill="#3b3937" fill-opacity="1"><g transform="translate(74.793991, 216.929235)"><g><path d="M 56.359375 0 L 14.71875 -118.53125 C 13.382812 -122.164062 11.75 -124.648438 9.8125 -125.984375 C 7.875 -127.316406 5.332031 -127.984375 2.1875 -127.984375 L 0 -127.984375 L 0 -129.796875 L 52.71875 -129.796875 L 52.71875 -127.984375 L 46.546875 -127.984375 C 43.265625 -127.984375 40.742188 -127.5 38.984375 -126.53125 C 37.234375 -125.5625 36.359375 -123.804688 36.359375 -121.265625 C 36.359375 -119.078125 36.960938 -116.285156 38.171875 -112.890625 L 60.359375 -48.359375 C 64.597656 -36.234375 67.929688 -25.382812 70.359375 -15.8125 C 71.691406 -20.300781 73.207031 -25.269531 74.90625 -30.71875 C 76.601562 -36.175781 78.238281 -41.328125 79.8125 -46.171875 L 100.71875 -111.625 C 102.050781 -115.382812 102.71875 -118.351562 102.71875 -120.53125 C 102.71875 -123.320312 101.773438 -125.257812 99.890625 -126.34375 C 98.015625 -127.4375 95.015625 -127.984375 90.890625 -127.984375 L 79.8125 -127.984375 L 79.8125 -129.796875 L 123.796875 -129.796875 L 123.796875 -127.984375 L 117.625 -127.984375 C 114.101562 -127.984375 111.3125 -126.984375 109.25 -124.984375 C 107.195312 -122.984375 105.382812 -119.378906 103.8125 -114.171875 L 66.90625 0 Z M 56.359375 0 "/></g></g></g><g clip-path="url(#94458db480)"><path fill="#f4f4f4" d="M 33.507812 200.605469 L 350.5 200.605469 L 350.5 237.519531 L 33.507812 237.519531 Z M 33.507812 200.605469 " fill-opacity="1" fill-rule="nonzero"/></g><g fill="#967f71" fill-opacity="1"><g transform="translate(96.672134, 227.124491)"><g><path d="M 17.007812 -5.597656 C 19.1875 -8.964844 20.550781 -13.667969 18.917969 -16.097656 C 18.839844 -16.222656 18.699219 -16.300781 18.558594 -16.285156 C 18.402344 -16.285156 18.277344 -16.191406 18.214844 -16.050781 C 18.152344 -15.925781 18.152344 -15.769531 18.246094 -15.644531 C 19.484375 -13.792969 18.652344 -9.65625 16.316406 -6.035156 C 13.808594 -2.164062 10.488281 -0.140625 7.414062 -0.644531 C 7.226562 -0.660156 7.070312 -0.769531 6.976562 -0.925781 C 6.410156 -1.882812 7.523438 -4.875 8.511719 -7.523438 C 9.703125 -10.707031 10.816406 -13.714844 10.03125 -15.109375 C 9.8125 -15.503906 9.421875 -15.769531 8.964844 -15.847656 C 6.144531 -16.363281 2.429688 -14.28125 1.191406 -11.457031 C 0.265625 -9.359375 0.910156 -7.257812 2.945312 -5.722656 C 3.136719 -5.582031 3.386719 -5.613281 3.527344 -5.800781 C 3.667969 -5.988281 3.636719 -6.238281 3.449219 -6.378906 C 1.207031 -8.058594 1.394531 -9.890625 1.945312 -11.128906 C 3.023438 -13.589844 6.363281 -15.488281 8.808594 -15.03125 C 9.027344 -15.015625 9.21875 -14.890625 9.3125 -14.703125 C 9.90625 -13.636719 8.761719 -10.550781 7.742188 -7.804688 C 6.535156 -4.59375 5.5 -1.800781 6.253906 -0.515625 C 6.472656 -0.140625 6.851562 0.109375 7.273438 0.15625 C 7.632812 0.21875 7.996094 0.25 8.355469 0.25 C 11.425781 0.25 14.59375 -1.867188 17.007812 -5.597656 Z M 17.007812 -5.597656 "/></g></g></g><g fill="#967f71" fill-opacity="1"><g transform="translate(114.43968, 227.124491)"><g><path d="M 13.105469 -3.792969 C 12.949219 -3.964844 12.679688 -3.980469 12.507812 -3.824219 C 12.460938 -3.777344 7.804688 0.40625 4.921875 -1.488281 C 3.777344 -2.242188 3.496094 -4.058594 3.496094 -4.074219 C 3.480469 -4.261719 3.339844 -4.40625 3.152344 -4.4375 C 2.976562 -4.453125 2.789062 -4.359375 2.710938 -4.199219 C 1.976562 -2.570312 0.675781 -0.5 0.3125 -0.738281 C 0.28125 -0.738281 0.21875 -0.800781 0.171875 -0.910156 C -0.015625 -1.425781 0.046875 -1.992188 0.3125 -2.476562 C 0.910156 -3.699219 2.007812 -4.578125 3.324219 -4.90625 C 3.464844 -4.9375 3.574219 -5.046875 3.621094 -5.1875 C 3.667969 -5.328125 3.621094 -5.484375 3.527344 -5.597656 C 3.417969 -5.691406 3.277344 -5.738281 3.136719 -5.707031 C 1.566406 -5.328125 0.265625 -4.261719 -0.4375 -2.820312 C -0.816406 -2.117188 -0.863281 -1.269531 -0.5625 -0.53125 C -0.421875 -0.171875 -0.078125 0.078125 0.3125 0.078125 L 0.328125 0.078125 C 1.097656 0.0625 2.054688 -0.894531 2.710938 -1.929688 C 2.789062 -2.054688 2.929688 -2.117188 3.074219 -2.101562 C 3.214844 -2.101562 3.339844 -2.023438 3.402344 -1.898438 C 3.667969 -1.457031 4.027344 -1.082031 4.46875 -0.816406 C 7.882812 1.457031 12.851562 -3.023438 13.074219 -3.214844 C 13.152344 -3.292969 13.199219 -3.402344 13.199219 -3.496094 C 13.214844 -3.605469 13.167969 -3.714844 13.105469 -3.792969 Z M 13.105469 -3.792969 "/></g></g></g><g fill="#967f71" fill-opacity="1"><g transform="translate(127.099455, 227.124491)"><g><path d="M 10.785156 -4.011719 C 10.707031 -4.089844 10.597656 -4.136719 10.488281 -4.136719 C 10.375 -4.136719 10.265625 -4.089844 10.1875 -4.011719 C 10.15625 -3.980469 6.035156 0.078125 3.074219 -0.816406 C 2.023438 -1.128906 1.441406 -2.132812 1.113281 -3.199219 C 1.019531 -3.542969 1.050781 -3.917969 1.207031 -4.246094 C 2.304688 -6.472656 5 -12.304688 3.667969 -13.730469 C 3.355469 -14.125 2.835938 -14.25 2.382812 -14.058594 C 0.800781 -13.371094 -0.25 -8.746094 -0.0625 -5.375 C -0.03125 -4.859375 0.03125 -4.34375 0.125 -3.824219 C 0.125 -3.761719 0.125 -3.714844 0.15625 -3.667969 C 0.5625 -1.691406 1.488281 -0.421875 2.835938 -0.03125 C 3.214844 0.078125 3.589844 0.140625 3.964844 0.140625 C 7.148438 0.140625 10.613281 -3.277344 10.769531 -3.433594 C 10.847656 -3.511719 10.894531 -3.605469 10.894531 -3.714844 C 10.894531 -3.839844 10.863281 -3.933594 10.785156 -4.011719 Z M 0.800781 -5.613281 C 0.3125 -8.230469 1.929688 -12.980469 2.710938 -13.308594 C 2.742188 -13.324219 2.773438 -13.339844 2.804688 -13.339844 C 2.867188 -13.339844 2.945312 -13.308594 3.054688 -13.183594 C 3.683594 -12.523438 1.898438 -6.851562 1.066406 -5.519531 C 0.988281 -5.375 0.832031 -5.453125 0.800781 -5.613281 Z M 0.800781 -5.613281 "/></g></g></g><g fill="#967f71" fill-opacity="1"><g transform="translate(137.424691, 227.124491)"><g><path d="M 13.152344 -4.027344 C 13.074219 -4.105469 12.980469 -4.167969 12.871094 -4.167969 C 12.757812 -4.183594 12.648438 -4.152344 12.570312 -4.089844 C 12.507812 -4.042969 6.472656 0.753906 1.441406 -1.316406 C 0.421875 -1.738281 0.375 -2.289062 0.40625 -2.585938 C 0.40625 -2.632812 0.421875 -2.679688 0.46875 -2.710938 C 0.5 -2.742188 0.5625 -2.742188 0.609375 -2.726562 C 1.628906 -2.664062 2.648438 -2.929688 3.527344 -3.480469 C 4.277344 -3.964844 4.40625 -4.5 4.359375 -4.84375 C 4.328125 -5.40625 3.871094 -5.863281 3.292969 -5.878906 C 2.054688 -5.941406 -0.015625 -4.46875 -0.359375 -2.898438 C -0.5 -2.320312 -0.484375 -1.222656 1.128906 -0.5625 C 2.117188 -0.15625 3.152344 0.03125 4.199219 0.03125 C 8.699219 0.03125 12.871094 -3.277344 13.089844 -3.449219 C 13.167969 -3.511719 13.230469 -3.621094 13.230469 -3.714844 C 13.246094 -3.824219 13.214844 -3.933594 13.152344 -4.027344 Z M 0.972656 -3.683594 C 1.582031 -4.53125 2.601562 -5.09375 3.246094 -5.046875 C 3.417969 -5.046875 3.511719 -4.984375 3.542969 -4.75 C 3.558594 -4.59375 3.386719 -4.375 3.074219 -4.167969 C 2.429688 -3.746094 0.5 -3.054688 0.972656 -3.683594 Z M 0.972656 -3.683594 "/></g></g></g><g fill="#967f71" fill-opacity="1"><g transform="translate(149.974785, 227.124491)"><g><path d="M 13.511719 -4.121094 C 13.433594 -4.199219 13.339844 -4.246094 13.230469 -4.246094 C 13.121094 -4.246094 13.011719 -4.199219 12.933594 -4.121094 C 10.21875 -1.472656 5.40625 -0.910156 4.375 -1.519531 C 3.667969 -1.929688 3.746094 -2.414062 4.246094 -3.386719 C 4.484375 -3.855469 4.75 -4.40625 4.296875 -4.734375 C 3.871094 -5.046875 3.464844 -4.84375 3.105469 -4.65625 C 2.585938 -4.359375 2.007812 -4.199219 1.394531 -4.199219 C 1.253906 -4.199219 1.128906 -4.453125 1.160156 -4.546875 C 2.039062 -6.472656 1.644531 -6.835938 1.503906 -6.976562 C 1.269531 -7.210938 0.910156 -7.195312 0.46875 -6.929688 C -0.25 -6.410156 -0.5625 -5.484375 -0.3125 -4.625 C -0.25 -4.390625 -0.140625 -4.167969 0.015625 -3.980469 C 0 -3.808594 0.078125 -3.652344 0.234375 -3.574219 C 0.328125 -3.527344 0.4375 -3.527344 0.546875 -3.558594 C 0.816406 -3.433594 1.113281 -3.371094 1.410156 -3.371094 C 2.054688 -3.355469 2.679688 -3.496094 3.246094 -3.808594 C 3.464844 -3.917969 3.542969 -3.824219 3.511719 -3.761719 C 3.136719 -3.023438 2.460938 -1.675781 3.964844 -0.800781 C 4.5 -0.546875 5.09375 -0.4375 5.691406 -0.484375 C 7.882812 -0.484375 11.332031 -1.425781 13.496094 -3.542969 C 13.574219 -3.605469 13.621094 -3.714844 13.621094 -3.824219 C 13.636719 -3.933594 13.589844 -4.042969 13.511719 -4.121094 Z M 0.453125 -4.984375 C 0.359375 -5.4375 0.515625 -5.910156 0.878906 -6.207031 C 0.769531 -5.785156 0.628906 -5.375 0.453125 -4.96875 Z M 0.453125 -4.984375 "/></g></g></g><g fill="#967f71" fill-opacity="1"><g transform="translate(162.822574, 227.124491)"><g><path d="M 12.398438 -4.3125 C 12.226562 -4.46875 11.976562 -4.46875 11.820312 -4.3125 C 11.726562 -4.214844 9.671875 -2.179688 6.898438 -4.214844 C 6.742188 -4.328125 6.535156 -4.328125 6.378906 -4.183594 C 6.128906 -3.964844 5.863281 -3.699219 5.582031 -3.417969 C 5.46875 -3.292969 5.28125 -3.246094 5.125 -3.308594 C 4.96875 -3.371094 4.859375 -3.511719 4.84375 -3.683594 C 4.84375 -4.011719 4.796875 -4.34375 4.6875 -4.65625 C 4.625 -4.828125 4.453125 -4.9375 4.261719 -4.90625 C 4.074219 -4.890625 3.933594 -4.75 3.902344 -4.578125 C 3.902344 -4.546875 3.402344 -1.769531 1.269531 -1.207031 C 1.082031 -1.144531 0.878906 -1.191406 0.738281 -1.332031 C 0.609375 -1.472656 0.25 -2.101562 1.066406 -4.089844 C 1.144531 -4.3125 1.050781 -4.546875 0.832031 -4.625 C 0.628906 -4.71875 0.375 -4.609375 0.296875 -4.40625 C -0.578125 -2.242188 -0.28125 -1.238281 0.109375 -0.785156 C 0.453125 -0.40625 0.988281 -0.265625 1.472656 -0.421875 C 2.570312 -0.722656 3.480469 -1.472656 3.996094 -2.476562 C 3.980469 -2.179688 3.933594 -1.882812 3.886719 -1.566406 C 3.871094 -1.503906 3.839844 -1.425781 3.792969 -1.363281 C 1.960938 0.941406 0.296875 3.761719 0.265625 5.535156 C 0.21875 6.003906 0.390625 6.472656 0.722656 6.835938 C 0.863281 6.976562 1.050781 7.070312 1.253906 7.070312 C 1.425781 7.054688 1.597656 7.007812 1.738281 6.914062 C 2.773438 6.222656 4.089844 2.210938 4.609375 -0.988281 C 4.625 -1.066406 4.65625 -1.128906 4.703125 -1.191406 C 5.1875 -1.785156 5.691406 -2.351562 6.191406 -2.851562 C 6.472656 -3.152344 6.898438 -3.214844 7.257812 -3.023438 C 8.949219 -2.132812 11.019531 -2.414062 12.398438 -3.730469 C 12.476562 -3.808594 12.523438 -3.917969 12.523438 -4.027344 C 12.523438 -4.136719 12.476562 -4.230469 12.398438 -4.3125 Z M 3.449219 0.722656 C 3.105469 2.289062 2.601562 3.792969 1.945312 5.25 C 1.582031 5.972656 1.425781 6.253906 1.269531 6.222656 C 1.128906 6.207031 1.082031 5.863281 1.097656 5.550781 C 1.113281 4.40625 2.054688 2.523438 3.308594 0.691406 C 3.386719 0.578125 3.480469 0.609375 3.449219 0.722656 Z M 3.449219 0.722656 "/></g></g></g><g fill="#967f71" fill-opacity="1"><g transform="translate(174.463927, 227.124491)"><g/></g></g><g fill="#967f71" fill-opacity="1"><g transform="translate(180.292436, 227.124491)"><g><path d="M 8.371094 0.59375 C 9.78125 0.046875 10.878906 -2.398438 11.597656 -4.59375 C 11.710938 -4.9375 11.945312 -5.234375 12.257812 -5.40625 C 13.199219 -5.941406 14.125 -6.425781 14.921875 -6.820312 C 15.125 -6.914062 15.21875 -7.164062 15.109375 -7.367188 C 15.015625 -7.570312 14.765625 -7.664062 14.5625 -7.554688 C 14.359375 -7.460938 13.730469 -7.164062 12.917969 -6.722656 C 12.773438 -6.644531 12.601562 -6.660156 12.476562 -6.757812 C 12.351562 -6.851562 12.304688 -7.007812 12.335938 -7.164062 C 12.476562 -7.710938 12.554688 -8.105469 12.585938 -8.261719 C 12.617188 -8.417969 12.554688 -8.589844 12.398438 -8.683594 C 12.257812 -8.777344 12.070312 -8.777344 11.929688 -8.667969 C 11.882812 -8.621094 6.019531 -4.230469 2.726562 -6.082031 C 1.644531 -6.691406 1.535156 -7.945312 1.628906 -8.886719 C 1.945312 -12.148438 5.15625 -16.585938 9.40625 -17.964844 C 11.253906 -18.574219 12.523438 -18.246094 12.964844 -17.054688 C 13.714844 -15.109375 12.070312 -11.082031 7.804688 -9.234375 C 7.585938 -9.136719 7.492188 -8.886719 7.585938 -8.683594 C 7.679688 -8.480469 7.914062 -8.386719 8.136719 -8.480469 C 12.539062 -10.390625 14.734375 -14.75 13.746094 -17.351562 C 13.121094 -18.964844 11.410156 -19.484375 9.152344 -18.746094 C 4.59375 -17.257812 1.160156 -12.492188 0.800781 -8.964844 C 0.644531 -7.289062 1.175781 -6.019531 2.320312 -5.375 C 4.953125 -3.886719 8.746094 -5.691406 10.863281 -6.960938 C 10.972656 -7.039062 11.113281 -7.023438 11.222656 -6.945312 C 11.332031 -6.851562 11.378906 -6.707031 11.332031 -6.582031 L 11.144531 -5.910156 C 11.097656 -5.769531 11.003906 -5.644531 10.878906 -5.566406 C 8.589844 -4.183594 6.097656 -2.367188 5.988281 -0.941406 C 5.941406 -0.40625 6.207031 0.09375 6.644531 0.359375 C 6.976562 0.59375 7.351562 0.722656 7.742188 0.722656 C 7.945312 0.722656 8.167969 0.675781 8.371094 0.59375 Z M 10.25 -3.339844 C 9.640625 -1.800781 8.886719 -0.484375 8.074219 -0.15625 C 7.742188 -0.046875 7.382812 -0.09375 7.132812 -0.3125 C 6.820312 -0.53125 6.789062 -0.722656 6.804688 -0.863281 C 6.867188 -1.628906 8.089844 -2.710938 9.671875 -3.808594 C 9.8125 -3.902344 10 -3.902344 10.140625 -3.792969 C 10.28125 -3.683594 10.328125 -3.496094 10.25 -3.339844 Z M 10.25 -3.339844 "/></g></g></g><g fill="#967f71" fill-opacity="1"><g transform="translate(193.876619, 227.124491)"><g><path d="M 11.425781 -4.453125 C 11.347656 -4.53125 11.253906 -4.5625 11.144531 -4.5625 C 11.035156 -4.5625 10.925781 -4.53125 10.847656 -4.453125 C 8.964844 -2.570312 6.300781 -1.707031 3.683594 -2.148438 C 3.480469 -2.195312 3.339844 -2.382812 3.371094 -2.585938 C 3.496094 -3.339844 3.433594 -4.105469 2.992188 -4.359375 C 2.710938 -4.515625 2.289062 -4.53125 1.785156 -3.683594 C 1.597656 -3.402344 1.535156 -3.054688 1.597656 -2.726562 C 1.675781 -2.398438 1.882812 -2.101562 2.164062 -1.929688 C 2.335938 -1.785156 2.132812 -1.550781 2.023438 -1.441406 C 1.722656 -1.082031 1.207031 -1.019531 0.847656 -1.300781 C 0.390625 -1.503906 0.1875 -2.007812 0.359375 -2.460938 C 0.5625 -3.292969 1.378906 -4.011719 1.675781 -4.011719 C 1.898438 -4.011719 2.085938 -4.199219 2.085938 -4.421875 C 2.101562 -4.640625 1.914062 -4.828125 1.691406 -4.84375 L 1.675781 -4.84375 C 0.894531 -4.84375 -0.15625 -3.777344 -0.4375 -2.664062 C -0.707031 -1.851562 -0.328125 -0.957031 0.453125 -0.578125 C 0.753906 -0.40625 1.082031 -0.328125 1.425781 -0.3125 C 2.101562 -0.34375 2.695312 -0.753906 2.976562 -1.378906 C 3.007812 -1.425781 3.089844 -1.457031 3.152344 -1.441406 C 5.140625 -0.847656 8.777344 -1.222656 11.425781 -3.855469 C 11.503906 -3.933594 11.550781 -4.042969 11.550781 -4.152344 C 11.550781 -4.261719 11.503906 -4.375 11.425781 -4.453125 Z M 2.554688 -2.664062 C 2.382812 -2.820312 2.351562 -3.074219 2.492188 -3.261719 C 2.539062 -3.339844 2.570312 -3.386719 2.601562 -3.433594 C 2.617188 -3.183594 2.601562 -2.914062 2.554688 -2.664062 Z M 2.554688 -2.664062 "/></g></g></g><g fill="#967f71" fill-opacity="1"><g transform="translate(204.703232, 227.124491)"><g><path d="M 13.699219 -3.902344 C 13.605469 -3.964844 13.511719 -4.011719 13.402344 -4.011719 C 13.292969 -3.996094 13.183594 -3.949219 13.121094 -3.871094 C 13.074219 -3.839844 9.625 -0.15625 6.628906 -1.363281 C 5.988281 -1.707031 5.46875 -2.226562 5.109375 -2.867188 C 4.984375 -3.074219 4.828125 -3.277344 4.640625 -3.464844 C 4.4375 -3.714844 4.121094 -3.855469 3.792969 -3.871094 C 2.992188 -3.933594 2.023438 -3.402344 0.863281 -2.304688 C 0.832031 -2.273438 0.785156 -2.257812 0.738281 -2.289062 C 0.691406 -2.304688 0.660156 -2.367188 0.675781 -2.414062 L 1.019531 -3.949219 C 1.082031 -4.167969 0.941406 -4.40625 0.722656 -4.453125 C 0.5 -4.5 0.28125 -4.359375 0.21875 -4.136719 L -0.5625 -0.707031 C -0.609375 -0.515625 -0.515625 -0.328125 -0.34375 -0.25 C -0.171875 -0.15625 0.03125 -0.203125 0.15625 -0.34375 C 2.257812 -2.804688 3.324219 -3.039062 3.699219 -3.054688 C 4.074219 -3.074219 4.3125 -2.585938 4.4375 -2.398438 C 4.875 -1.628906 5.535156 -1.003906 6.316406 -0.609375 C 9.828125 0.816406 13.558594 -3.152344 13.714844 -3.324219 C 13.871094 -3.480469 13.855469 -3.746094 13.699219 -3.902344 Z M 13.699219 -3.902344 "/></g></g></g><g fill="#967f71" fill-opacity="1"><g transform="translate(217.754703, 227.124491)"><g><path d="M 12.851562 -4.136719 C 12.710938 -4.296875 12.445312 -4.328125 12.273438 -4.167969 C 12.242188 -4.136719 9.152344 -1.503906 6.628906 -3.230469 C 6.300781 -3.449219 5.847656 -3.417969 5.550781 -3.152344 C 5.265625 -2.882812 4.96875 -2.570312 4.65625 -2.226562 C 4.5 -2.070312 4.246094 -2.039062 4.074219 -2.179688 L 4.074219 -2.195312 C 3.949219 -2.273438 3.886719 -2.414062 3.902344 -2.554688 C 3.917969 -2.710938 3.996094 -2.835938 4.136719 -2.898438 C 4.78125 -3.214844 5.28125 -3.605469 5.328125 -4.058594 C 5.359375 -4.46875 5.109375 -4.8125 4.546875 -5.078125 C 3.246094 -5.707031 1.238281 -5.171875 0.125 -4.328125 C -0.0625 -4.199219 -0.09375 -3.933594 0.046875 -3.761719 C 0.1875 -3.574219 0.4375 -3.542969 0.628906 -3.683594 C 1.519531 -4.359375 3.214844 -4.796875 4.199219 -4.328125 C 4.3125 -4.277344 4.40625 -4.214844 4.5 -4.136719 C 4.390625 -3.855469 3.105469 -3.292969 1.800781 -2.960938 C 1.613281 -2.914062 1.472656 -2.742188 1.488281 -2.539062 C 1.503906 -2.351562 1.660156 -2.179688 1.851562 -2.164062 C 2.445312 -2.117188 3.007812 -1.914062 3.496094 -1.582031 C 3.589844 -1.519531 3.652344 -1.410156 3.667969 -1.300781 C 3.667969 -1.191406 3.636719 -1.082031 3.574219 -0.988281 C 1.457031 1.582031 -0.675781 4.96875 -0.296875 6.457031 C -0.203125 6.867188 0.109375 7.164062 0.5 7.257812 C 0.578125 7.273438 0.660156 7.273438 0.722656 7.273438 C 1.425781 7.273438 2.179688 6.582031 2.726562 5.972656 C 4.042969 4.46875 5.847656 1.207031 4.9375 -1.035156 C 4.890625 -1.160156 4.921875 -1.300781 5 -1.410156 C 5.296875 -1.738281 5.597656 -2.054688 5.894531 -2.335938 C 6.035156 -2.476562 6.253906 -2.492188 6.410156 -2.398438 C 9.390625 -0.628906 12.773438 -3.527344 12.820312 -3.558594 C 12.996094 -3.699219 13.011719 -3.964844 12.851562 -4.136719 Z M 2.101562 5.4375 C 1.378906 6.253906 0.863281 6.488281 0.691406 6.457031 C 0.59375 6.441406 0.515625 6.363281 0.5 6.269531 C 0.28125 5.375 1.738281 2.710938 3.589844 0.296875 C 3.699219 0.15625 3.902344 0.09375 4.074219 0.15625 C 4.246094 0.21875 4.359375 0.390625 4.359375 0.578125 C 4.246094 2.148438 3.277344 4.105469 2.101562 5.4375 Z M 2.101562 5.4375 "/></g></g></g><g fill="#967f71" fill-opacity="1"><g transform="translate(229.897433, 227.124491)"><g><path d="M 13.105469 -3.792969 C 12.949219 -3.964844 12.679688 -3.980469 12.507812 -3.824219 C 12.460938 -3.777344 7.804688 0.40625 4.921875 -1.488281 C 3.777344 -2.242188 3.496094 -4.058594 3.496094 -4.074219 C 3.480469 -4.261719 3.339844 -4.40625 3.152344 -4.4375 C 2.976562 -4.453125 2.789062 -4.359375 2.710938 -4.199219 C 1.976562 -2.570312 0.675781 -0.5 0.3125 -0.738281 C 0.28125 -0.738281 0.21875 -0.800781 0.171875 -0.910156 C -0.015625 -1.425781 0.046875 -1.992188 0.3125 -2.476562 C 0.910156 -3.699219 2.007812 -4.578125 3.324219 -4.90625 C 3.464844 -4.9375 3.574219 -5.046875 3.621094 -5.1875 C 3.667969 -5.328125 3.621094 -5.484375 3.527344 -5.597656 C 3.417969 -5.691406 3.277344 -5.738281 3.136719 -5.707031 C 1.566406 -5.328125 0.265625 -4.261719 -0.4375 -2.820312 C -0.816406 -2.117188 -0.863281 -1.269531 -0.5625 -0.53125 C -0.421875 -0.171875 -0.078125 0.078125 0.3125 0.078125 L 0.328125 0.078125 C 1.097656 0.0625 2.054688 -0.894531 2.710938 -1.929688 C 2.789062 -2.054688 2.929688 -2.117188 3.074219 -2.101562 C 3.214844 -2.101562 3.339844 -2.023438 3.402344 -1.898438 C 3.667969 -1.457031 4.027344 -1.082031 4.46875 -0.816406 C 7.882812 1.457031 12.851562 -3.023438 13.074219 -3.214844 C 13.152344 -3.292969 13.199219 -3.402344 13.199219 -3.496094 C 13.214844 -3.605469 13.167969 -3.714844 13.105469 -3.792969 Z M 13.105469 -3.792969 "/></g></g></g><g fill="#967f71" fill-opacity="1"><g transform="translate(242.557207, 227.124491)"><g><path d="M 10.785156 -4.011719 C 10.707031 -4.089844 10.597656 -4.136719 10.488281 -4.136719 C 10.375 -4.136719 10.265625 -4.089844 10.1875 -4.011719 C 10.15625 -3.980469 6.035156 0.078125 3.074219 -0.816406 C 2.023438 -1.128906 1.441406 -2.132812 1.113281 -3.199219 C 1.019531 -3.542969 1.050781 -3.917969 1.207031 -4.246094 C 2.304688 -6.472656 5 -12.304688 3.667969 -13.730469 C 3.355469 -14.125 2.835938 -14.25 2.382812 -14.058594 C 0.800781 -13.371094 -0.25 -8.746094 -0.0625 -5.375 C -0.03125 -4.859375 0.03125 -4.34375 0.125 -3.824219 C 0.125 -3.761719 0.125 -3.714844 0.15625 -3.667969 C 0.5625 -1.691406 1.488281 -0.421875 2.835938 -0.03125 C 3.214844 0.078125 3.589844 0.140625 3.964844 0.140625 C 7.148438 0.140625 10.613281 -3.277344 10.769531 -3.433594 C 10.847656 -3.511719 10.894531 -3.605469 10.894531 -3.714844 C 10.894531 -3.839844 10.863281 -3.933594 10.785156 -4.011719 Z M 0.800781 -5.613281 C 0.3125 -8.230469 1.929688 -12.980469 2.710938 -13.308594 C 2.742188 -13.324219 2.773438 -13.339844 2.804688 -13.339844 C 2.867188 -13.339844 2.945312 -13.308594 3.054688 -13.183594 C 3.683594 -12.523438 1.898438 -6.851562 1.066406 -5.519531 C 0.988281 -5.375 0.832031 -5.453125 0.800781 -5.613281 Z M 0.800781 -5.613281 "/></g></g></g><g fill="#967f71" fill-opacity="1"><g transform="translate(252.882443, 227.124491)"><g><path d="M 13.152344 -4.027344 C 13.074219 -4.105469 12.980469 -4.167969 12.871094 -4.167969 C 12.757812 -4.183594 12.648438 -4.152344 12.570312 -4.089844 C 12.507812 -4.042969 6.472656 0.753906 1.441406 -1.316406 C 0.421875 -1.738281 0.375 -2.289062 0.40625 -2.585938 C 0.40625 -2.632812 0.421875 -2.679688 0.46875 -2.710938 C 0.5 -2.742188 0.5625 -2.742188 0.609375 -2.726562 C 1.628906 -2.664062 2.648438 -2.929688 3.527344 -3.480469 C 4.277344 -3.964844 4.40625 -4.5 4.359375 -4.84375 C 4.328125 -5.40625 3.871094 -5.863281 3.292969 -5.878906 C 2.054688 -5.941406 -0.015625 -4.46875 -0.359375 -2.898438 C -0.5 -2.320312 -0.484375 -1.222656 1.128906 -0.5625 C 2.117188 -0.15625 3.152344 0.03125 4.199219 0.03125 C 8.699219 0.03125 12.871094 -3.277344 13.089844 -3.449219 C 13.167969 -3.511719 13.230469 -3.621094 13.230469 -3.714844 C 13.246094 -3.824219 13.214844 -3.933594 13.152344 -4.027344 Z M 0.972656 -3.683594 C 1.582031 -4.53125 2.601562 -5.09375 3.246094 -5.046875 C 3.417969 -5.046875 3.511719 -4.984375 3.542969 -4.75 C 3.558594 -4.59375 3.386719 -4.375 3.074219 -4.167969 C 2.429688 -3.746094 0.5 -3.054688 0.972656 -3.683594 Z M 0.972656 -3.683594 "/></g></g></g><g fill="#967f71" fill-opacity="1"><g transform="translate(265.432537, 227.124491)"><g><path d="M 12.851562 -4.136719 C 12.710938 -4.296875 12.445312 -4.328125 12.273438 -4.167969 C 12.242188 -4.136719 9.152344 -1.503906 6.628906 -3.230469 C 6.300781 -3.449219 5.847656 -3.417969 5.550781 -3.152344 C 5.265625 -2.882812 4.96875 -2.570312 4.65625 -2.226562 C 4.5 -2.070312 4.246094 -2.039062 4.074219 -2.179688 L 4.074219 -2.195312 C 3.949219 -2.273438 3.886719 -2.414062 3.902344 -2.554688 C 3.917969 -2.710938 3.996094 -2.835938 4.136719 -2.898438 C 4.78125 -3.214844 5.28125 -3.605469 5.328125 -4.058594 C 5.359375 -4.46875 5.109375 -4.8125 4.546875 -5.078125 C 3.246094 -5.707031 1.238281 -5.171875 0.125 -4.328125 C -0.0625 -4.199219 -0.09375 -3.933594 0.046875 -3.761719 C 0.1875 -3.574219 0.4375 -3.542969 0.628906 -3.683594 C 1.519531 -4.359375 3.214844 -4.796875 4.199219 -4.328125 C 4.3125 -4.277344 4.40625 -4.214844 4.5 -4.136719 C 4.390625 -3.855469 3.105469 -3.292969 1.800781 -2.960938 C 1.613281 -2.914062 1.472656 -2.742188 1.488281 -2.539062 C 1.503906 -2.351562 1.660156 -2.179688 1.851562 -2.164062 C 2.445312 -2.117188 3.007812 -1.914062 3.496094 -1.582031 C 3.589844 -1.519531 3.652344 -1.410156 3.667969 -1.300781 C 3.667969 -1.191406 3.636719 -1.082031 3.574219 -0.988281 C 1.457031 1.582031 -0.675781 4.96875 -0.296875 6.457031 C -0.203125 6.867188 0.109375 7.164062 0.5 7.257812 C 0.578125 7.273438 0.660156 7.273438 0.722656 7.273438 C 1.425781 7.273438 2.179688 6.582031 2.726562 5.972656 C 4.042969 4.46875 5.847656 1.207031 4.9375 -1.035156 C 4.890625 -1.160156 4.921875 -1.300781 5 -1.410156 C 5.296875 -1.738281 5.597656 -2.054688 5.894531 -2.335938 C 6.035156 -2.476562 6.253906 -2.492188 6.410156 -2.398438 C 9.390625 -0.628906 12.773438 -3.527344 12.820312 -3.558594 C 12.996094 -3.699219 13.011719 -3.964844 12.851562 -4.136719 Z M 2.101562 5.4375 C 1.378906 6.253906 0.863281 6.488281 0.691406 6.457031 C 0.59375 6.441406 0.515625 6.363281 0.5 6.269531 C 0.28125 5.375 1.738281 2.710938 3.589844 0.296875 C 3.699219 0.15625 3.902344 0.09375 4.074219 0.15625 C 4.246094 0.21875 4.359375 0.390625 4.359375 0.578125 C 4.246094 2.148438 3.277344 4.105469 2.101562 5.4375 Z M 2.101562 5.4375 "/></g></g></g></svg>