<svg xmlns="http://www.w3.org/2000/svg" xmlns:xlink="http://www.w3.org/1999/xlink" width="500" zoomAndPan="magnify" viewBox="0 0 375 374.999991" height="500" preserveAspectRatio="xMidYMid meet" version="1.0"><defs><g/><clipPath id="df53c20117"><path d="M 0 1.453125 L 373.5 1.453125 L 373.5 374.953125 L 0 374.953125 Z M 0 1.453125 " clip-rule="nonzero"/></clipPath><clipPath id="4b6ccc31ff"><path d="M 48.929688 50.382812 L 324.617188 50.382812 L 324.617188 326.070312 L 48.929688 326.070312 Z M 48.929688 50.382812 " clip-rule="nonzero"/></clipPath><clipPath id="92c2a9c72e"><path d="M 186.773438 50.382812 C 110.644531 50.382812 48.929688 112.097656 48.929688 188.226562 C 48.929688 264.355469 110.644531 326.070312 186.773438 326.070312 C 262.902344 326.070312 324.617188 264.355469 324.617188 188.226562 C 324.617188 112.097656 262.902344 50.382812 186.773438 50.382812 Z M 186.773438 50.382812 " clip-rule="nonzero"/></clipPath><clipPath id="aacbb36989"><path d="M 115.121094 118.214844 L 258.425781 118.214844 L 258.425781 261.519531 L 115.121094 261.519531 Z M 115.121094 118.214844 " clip-rule="nonzero"/></clipPath><clipPath id="c832af45e3"><path d="M 186.773438 118.214844 C 147.199219 118.214844 115.121094 150.296875 115.121094 189.867188 C 115.121094 229.441406 147.199219 261.519531 186.773438 261.519531 C 226.34375 261.519531 258.425781 229.441406 258.425781 189.867188 C 258.425781 150.296875 226.34375 118.214844 186.773438 118.214844 Z M 186.773438 118.214844 " clip-rule="nonzero"/></clipPath><clipPath id="65abd77695"><path d="M 164.8125 166.3125 L 208.644531 166.3125 L 208.644531 210.144531 L 164.8125 210.144531 Z M 164.8125 166.3125 " clip-rule="nonzero"/></clipPath><clipPath id="d6493368b9"><path d="M 186.726562 166.3125 C 174.625 166.3125 164.8125 176.121094 164.8125 188.226562 C 164.8125 200.332031 174.625 210.144531 186.726562 210.144531 C 198.832031 210.144531 208.644531 200.332031 208.644531 188.226562 C 208.644531 176.121094 198.832031 166.3125 186.726562 166.3125 Z M 186.726562 166.3125 " clip-rule="nonzero"/></clipPath></defs><g clip-path="url(#df53c20117)"><path fill="#004aad" d="M 373.5 188.203125 C 373.5 191.261719 373.425781 194.316406 373.273438 197.367188 C 373.125 200.421875 372.898438 203.46875 372.601562 206.507812 C 372.300781 209.550781 371.925781 212.582031 371.480469 215.605469 C 371.03125 218.628906 370.507812 221.640625 369.910156 224.636719 C 369.316406 227.632812 368.644531 230.617188 367.902344 233.582031 C 367.160156 236.546875 366.34375 239.488281 365.457031 242.414062 C 364.570312 245.339844 363.613281 248.242188 362.582031 251.117188 C 361.554688 253.996094 360.453125 256.847656 359.285156 259.671875 C 358.113281 262.492188 356.875 265.285156 355.570312 268.050781 C 354.261719 270.8125 352.890625 273.542969 351.449219 276.238281 C 350.007812 278.933594 348.503906 281.589844 346.929688 284.210938 C 345.359375 286.835938 343.726562 289.414062 342.027344 291.957031 C 340.328125 294.496094 338.570312 296.996094 336.75 299.449219 C 334.929688 301.90625 333.046875 304.3125 331.109375 306.675781 C 329.171875 309.039062 327.175781 311.351562 325.121094 313.617188 C 323.070312 315.882812 320.964844 318.09375 318.800781 320.257812 C 316.640625 322.417969 314.429688 324.523438 312.164062 326.578125 C 309.898438 328.628906 307.585938 330.625 305.222656 332.5625 C 302.859375 334.503906 300.453125 336.382812 297.996094 338.203125 C 295.542969 340.023438 293.042969 341.78125 290.503906 343.480469 C 287.960938 345.179688 285.378906 346.8125 282.757812 348.382812 C 280.136719 349.957031 277.480469 351.460938 274.785156 352.902344 C 272.085938 354.34375 269.359375 355.71875 266.597656 357.023438 C 263.832031 358.332031 261.039062 359.570312 258.214844 360.738281 C 255.390625 361.90625 252.542969 363.007812 249.664062 364.039062 C 246.785156 365.066406 243.886719 366.023438 240.960938 366.914062 C 238.035156 367.800781 235.089844 368.613281 232.125 369.355469 C 229.160156 370.101562 226.179688 370.769531 223.183594 371.367188 C 220.183594 371.960938 217.175781 372.484375 214.152344 372.933594 C 211.128906 373.382812 208.097656 373.753906 205.054688 374.054688 C 202.011719 374.355469 198.964844 374.578125 195.914062 374.730469 C 192.859375 374.878906 189.804688 374.953125 186.75 374.953125 C 183.695312 374.953125 180.640625 374.878906 177.585938 374.730469 C 174.535156 374.578125 171.488281 374.355469 168.445312 374.054688 C 165.402344 373.753906 162.371094 373.382812 159.347656 372.933594 C 156.324219 372.484375 153.3125 371.960938 150.316406 371.367188 C 147.320312 370.769531 144.339844 370.101562 141.375 369.355469 C 138.410156 368.613281 135.464844 367.800781 132.539062 366.914062 C 129.613281 366.023438 126.714844 365.066406 123.835938 364.039062 C 120.957031 363.007812 118.109375 361.90625 115.285156 360.738281 C 112.460938 359.570312 109.667969 358.332031 106.902344 357.023438 C 104.140625 355.71875 101.410156 354.34375 98.714844 352.902344 C 96.019531 351.460938 93.363281 349.957031 90.742188 348.382812 C 88.121094 346.8125 85.539062 345.179688 82.996094 343.480469 C 80.457031 341.78125 77.957031 340.023438 75.503906 338.203125 C 73.046875 336.382812 70.640625 334.503906 68.277344 332.5625 C 65.914062 330.625 63.601562 328.628906 61.335938 326.578125 C 59.070312 324.523438 56.859375 322.417969 54.699219 320.257812 C 52.535156 318.09375 50.429688 315.882812 48.378906 313.617188 C 46.324219 311.351562 44.328125 309.039062 42.390625 306.675781 C 40.453125 304.3125 38.570312 301.90625 36.75 299.449219 C 34.929688 296.996094 33.171875 294.496094 31.472656 291.957031 C 29.773438 289.414062 28.140625 286.835938 26.570312 284.210938 C 24.996094 281.589844 23.492188 278.933594 22.050781 276.238281 C 20.609375 273.542969 19.238281 270.8125 17.929688 268.050781 C 16.625 265.285156 15.386719 262.492188 14.214844 259.671875 C 13.046875 256.847656 11.945312 253.996094 10.917969 251.117188 C 9.886719 248.242188 8.929688 245.339844 8.042969 242.414062 C 7.152344 239.488281 6.339844 236.546875 5.597656 233.582031 C 4.855469 230.617188 4.183594 227.632812 3.589844 224.636719 C 2.992188 221.640625 2.46875 218.628906 2.019531 215.605469 C 1.574219 212.582031 1.199219 209.550781 0.898438 206.507812 C 0.601562 203.46875 0.375 200.421875 0.226562 197.367188 C 0.0742188 194.316406 0 191.261719 0 188.203125 C 0 185.148438 0.0742188 182.09375 0.226562 179.039062 C 0.375 175.988281 0.601562 172.941406 0.898438 169.898438 C 1.199219 166.859375 1.574219 163.824219 2.019531 160.800781 C 2.46875 157.777344 2.992188 154.769531 3.589844 151.769531 C 4.183594 148.773438 4.855469 145.792969 5.597656 142.828125 C 6.339844 139.863281 7.152344 136.917969 8.042969 133.992188 C 8.929688 131.070312 9.886719 128.167969 10.917969 125.289062 C 11.945312 122.410156 13.046875 119.5625 14.214844 116.738281 C 15.386719 113.914062 16.625 111.121094 17.929688 108.359375 C 19.238281 105.59375 20.609375 102.867188 22.050781 100.171875 C 23.492188 97.476562 24.996094 94.816406 26.570312 92.195312 C 28.140625 89.574219 29.773438 86.992188 31.472656 84.453125 C 33.171875 81.910156 34.929688 79.410156 36.75 76.957031 C 38.570312 74.503906 40.453125 72.09375 42.390625 69.730469 C 44.328125 67.367188 46.324219 65.054688 48.378906 62.789062 C 50.429688 60.527344 52.535156 58.3125 54.699219 56.152344 C 56.859375 53.992188 59.070312 51.882812 61.335938 49.832031 C 63.601562 47.777344 65.914062 45.78125 68.277344 43.84375 C 70.640625 41.90625 73.046875 40.027344 75.503906 38.203125 C 77.957031 36.382812 80.457031 34.625 82.996094 32.925781 C 85.539062 31.230469 88.121094 29.59375 90.742188 28.023438 C 93.363281 26.453125 96.019531 24.945312 98.714844 23.503906 C 101.410156 22.0625 104.140625 20.691406 106.902344 19.382812 C 109.667969 18.078125 112.460938 16.839844 115.285156 15.667969 C 118.109375 14.5 120.957031 13.398438 123.835938 12.371094 C 126.714844 11.339844 129.613281 10.382812 132.539062 9.496094 C 135.464844 8.609375 138.410156 7.792969 141.375 7.050781 C 144.339844 6.308594 147.320312 5.636719 150.316406 5.042969 C 153.3125 4.445312 156.324219 3.921875 159.347656 3.476562 C 162.371094 3.027344 165.402344 2.652344 168.445312 2.351562 C 171.488281 2.054688 174.535156 1.828125 177.585938 1.679688 C 180.640625 1.527344 183.695312 1.453125 186.75 1.453125 C 189.804688 1.453125 192.859375 1.527344 195.914062 1.679688 C 198.964844 1.828125 202.011719 2.054688 205.054688 2.351562 C 208.097656 2.652344 211.128906 3.027344 214.152344 3.476562 C 217.175781 3.921875 220.183594 4.445312 223.183594 5.042969 C 226.179688 5.636719 229.160156 6.308594 232.125 7.050781 C 235.089844 7.792969 238.035156 8.609375 240.960938 9.496094 C 243.886719 10.382812 246.785156 11.339844 249.664062 12.371094 C 252.542969 13.398438 255.390625 14.5 258.214844 15.667969 C 261.039062 16.839844 263.832031 18.078125 266.597656 19.382812 C 269.359375 20.691406 272.089844 22.0625 274.785156 23.503906 C 277.480469 24.945312 280.136719 26.453125 282.757812 28.023438 C 285.378906 29.59375 287.960938 31.230469 290.503906 32.925781 C 293.042969 34.625 295.542969 36.382812 297.996094 38.203125 C 300.453125 40.027344 302.859375 41.90625 305.222656 43.84375 C 307.585938 45.78125 309.898438 47.777344 312.164062 49.832031 C 314.429688 51.882812 316.640625 53.992188 318.800781 56.152344 C 320.964844 58.3125 323.070312 60.527344 325.121094 62.789062 C 327.175781 65.054688 329.171875 67.367188 331.109375 69.730469 C 333.046875 72.09375 334.929688 74.503906 336.75 76.957031 C 338.570312 79.410156 340.328125 81.910156 342.027344 84.453125 C 343.726562 86.992188 345.359375 89.574219 346.929688 92.195312 C 348.503906 94.816406 350.007812 97.476562 351.449219 100.171875 C 352.890625 102.867188 354.261719 105.59375 355.570312 108.359375 C 356.875 111.121094 358.113281 113.914062 359.285156 116.738281 C 360.453125 119.5625 361.554688 122.410156 362.582031 125.289062 C 363.613281 128.167969 364.570312 131.070312 365.457031 133.992188 C 366.347656 136.917969 367.160156 139.863281 367.902344 142.828125 C 368.644531 145.792969 369.316406 148.773438 369.910156 151.769531 C 370.507812 154.769531 371.03125 157.777344 371.480469 160.800781 C 371.925781 163.824219 372.300781 166.859375 372.601562 169.898438 C 372.898438 172.941406 373.125 175.988281 373.273438 179.039062 C 373.425781 182.09375 373.5 185.148438 373.5 188.203125 Z M 373.5 188.203125 " fill-opacity="1" fill-rule="nonzero"/></g><g clip-path="url(#4b6ccc31ff)"><g clip-path="url(#92c2a9c72e)"><path fill="#ffffff" d="M 48.929688 50.382812 L 324.617188 50.382812 L 324.617188 326.070312 L 48.929688 326.070312 Z M 48.929688 50.382812 " fill-opacity="1" fill-rule="nonzero"/></g></g><g clip-path="url(#aacbb36989)"><g clip-path="url(#c832af45e3)"><path fill="#0097b2" d="M 115.121094 118.214844 L 258.425781 118.214844 L 258.425781 261.519531 L 115.121094 261.519531 Z M 115.121094 118.214844 " fill-opacity="1" fill-rule="nonzero"/></g></g><g clip-path="url(#65abd77695)"><g clip-path="url(#d6493368b9)"><path fill="#000000" d="M 164.8125 166.3125 L 208.644531 166.3125 L 208.644531 210.144531 L 164.8125 210.144531 Z M 164.8125 166.3125 " fill-opacity="1" fill-rule="nonzero"/></g></g><g fill="#466b3a" fill-opacity="1"><g transform="translate(122.981093, 125.568666)"><g><path d="M 5.71875 -23.792969 C 6.308594 -23.078125 6.925781 -22.332031 7.511719 -21.617188 L 9.304688 -19.4375 C 9.894531 -18.722656 10.542969 -18 11.128906 -17.285156 L 12.921875 -15.105469 C 13.539062 -14.359375 14.160156 -13.671875 14.75 -12.957031 C 14.828125 -12.859375 14.816406 -12.738281 14.871094 -12.675781 C 14.949219 -12.578125 14.933594 -12.398438 14.835938 -12.320312 C 14.769531 -12.265625 14.734375 -12.179688 14.640625 -12.160156 L 14.597656 -12.011719 C 13.816406 -11.371094 12.984375 -10.792969 12.171875 -10.125 C 12.074219 -10.046875 11.976562 -9.964844 11.9375 -9.878906 L 11.742188 -9.71875 C 11.285156 -9.34375 11.828125 -9.679688 10.773438 -8.976562 C 10.640625 -8.867188 10.511719 -8.761719 10.386719 -8.714844 C 10.191406 -8.550781 10.03125 -8.417969 9.808594 -8.289062 C 9.710938 -8.210938 9.527344 -8.167969 9.402344 -8.121094 C 9.246094 -8.046875 9.117188 -7.9375 8.960938 -7.863281 L 8.457031 -7.613281 C 8.234375 -7.484375 8.019531 -7.417969 7.769531 -7.320312 C 7.554688 -7.253906 7.363281 -7.152344 7.179688 -7.109375 C 7.023438 -7.035156 6.847656 -7.050781 6.722656 -7.003906 C 6.445312 -6.941406 6.226562 -6.8125 5.949219 -6.75 C 5.582031 -6.667969 5.1875 -6.617188 4.796875 -6.5625 C 4.492188 -6.535156 4.191406 -6.503906 3.863281 -6.503906 C 3.621094 -6.46875 3.355469 -6.523438 3.144531 -6.515625 C 2.90625 -6.539062 2.691406 -6.46875 2.453125 -6.492188 C 2.394531 -6.496094 2.34375 -6.5625 2.308594 -6.535156 L 2.132812 -6.554688 C 2.011719 -6.566406 1.828125 -6.523438 1.683594 -6.566406 C 1.507812 -6.585938 1.355469 -6.570312 1.183594 -6.644531 C 0.945312 -6.667969 0.6875 -6.78125 0.457031 -6.867188 C 0.226562 -6.949219 -0.015625 -6.910156 -0.273438 -7.027344 C -0.359375 -7.066406 -0.511719 -7.050781 -0.625 -7.121094 C -0.855469 -7.203125 -1.023438 -7.339844 -1.222656 -7.445312 C -1.367188 -7.492188 -1.578125 -7.480469 -1.691406 -7.550781 C -1.863281 -7.628906 -2.027344 -7.765625 -2.195312 -7.902344 C -2.425781 -7.984375 -2.652344 -8.125 -2.851562 -8.234375 C -3.273438 -8.484375 -3.671875 -8.703125 -4.0625 -8.980469 C -4.257812 -9.148438 -4.476562 -9.347656 -4.695312 -9.550781 L -5.167969 -9.925781 C -6.179688 -10.890625 -7.0625 -11.964844 -7.972656 -13.070312 C -8.535156 -13.75 -9.125 -14.464844 -9.714844 -15.179688 L -11.453125 -17.292969 C -12.042969 -18.011719 -12.597656 -18.753906 -13.1875 -19.46875 C -13.773438 -20.183594 -14.402344 -20.8125 -14.988281 -21.527344 C -15.578125 -22.242188 -16.132812 -22.984375 -16.722656 -23.699219 C -16.777344 -23.765625 -16.796875 -23.855469 -16.820312 -23.949219 C -16.894531 -24.105469 -16.914062 -24.195312 -16.785156 -24.304688 C -16.75 -24.332031 -16.726562 -24.296875 -16.691406 -24.324219 C -16.105469 -24.804688 -15.550781 -25.320312 -14.964844 -25.800781 C -14.347656 -26.308594 -13.789062 -26.824219 -13.203125 -27.304688 C -13.167969 -27.332031 -13.023438 -27.289062 -12.992188 -27.316406 C -12.867188 -27.363281 -12.867188 -27.363281 -12.753906 -27.292969 L -12.59375 -27.097656 C -11.953125 -26.316406 -11.21875 -25.558594 -10.550781 -24.746094 C -9.90625 -23.964844 -9.269531 -23.125 -8.601562 -22.3125 C -7.960938 -21.53125 -7.226562 -20.773438 -6.558594 -19.960938 C -5.914062 -19.179688 -5.277344 -18.339844 -4.609375 -17.527344 L -2.628906 -15.121094 C -2.28125 -14.699219 -1.929688 -14.335938 -1.515625 -13.96875 C -1.296875 -13.765625 -1.140625 -13.511719 -0.886719 -13.335938 C -0.667969 -13.136719 -0.390625 -12.929688 -0.105469 -12.78125 C 0.0625 -12.648438 0.273438 -12.65625 0.503906 -12.574219 C 0.640625 -12.472656 0.847656 -12.421875 1.019531 -12.34375 C 1.191406 -12.269531 1.363281 -12.191406 1.566406 -12.140625 C 1.714844 -12.097656 1.886719 -12.019531 2.03125 -11.976562 L 2.328125 -11.949219 C 2.386719 -11.941406 2.476562 -11.964844 2.503906 -11.929688 C 2.535156 -11.957031 2.53125 -11.898438 2.558594 -11.867188 C 2.648438 -11.886719 2.742188 -11.910156 2.800781 -11.902344 L 3.15625 -11.867188 C 3.425781 -11.871094 3.691406 -11.816406 3.992188 -11.847656 C 4.328125 -11.902344 4.667969 -12.019531 5 -12.078125 C 5.25 -12.171875 5.503906 -12.328125 5.753906 -12.421875 C 5.9375 -12.464844 6.113281 -12.449219 6.269531 -12.523438 C 6.429688 -12.597656 6.589844 -12.730469 6.71875 -12.839844 C 6.8125 -12.859375 6.910156 -12.9375 7.007812 -13.019531 C 7.105469 -13.101562 7.171875 -13.152344 7.207031 -13.238281 C 7.246094 -13.324219 7.191406 -13.390625 7.167969 -13.421875 C 7.171875 -13.480469 7.175781 -13.542969 7.152344 -13.574219 C 7.128906 -13.664062 7.042969 -13.703125 7.015625 -13.738281 L 6.992188 -13.769531 C 6.90625 -13.808594 6.855469 -13.929688 6.804688 -13.996094 C 6.109375 -14.84375 5.503906 -15.707031 4.835938 -16.519531 C 4.140625 -17.367188 3.371094 -18.097656 2.703125 -18.910156 C 2.007812 -19.757812 1.402344 -20.625 0.734375 -21.4375 C 0.0390625 -22.28125 -0.695312 -23.039062 -1.363281 -23.851562 C -2.058594 -24.699219 -2.664062 -25.566406 -3.332031 -26.378906 C -4.027344 -27.222656 -4.664062 -28.0625 -5.332031 -28.875 C -6.027344 -29.71875 -6.761719 -30.480469 -7.429688 -31.292969 L -7.644531 -31.550781 C -7.691406 -31.675781 -7.648438 -31.820312 -7.519531 -31.929688 L -7.453125 -31.984375 C -7.257812 -32.144531 -4.390625 -34.558594 -3.90625 -34.957031 L -3.742188 -35.09375 C -3.683594 -35.085938 -3.570312 -35.015625 -3.515625 -34.949219 C -3.457031 -34.945312 -3.4375 -34.851562 -3.351562 -34.816406 C -3.324219 -34.78125 -3.265625 -34.777344 -3.238281 -34.742188 C -2.621094 -33.996094 -2 -33.308594 -1.410156 -32.59375 C -0.796875 -31.84375 -0.242188 -31.101562 0.375 -30.355469 L 2.167969 -28.175781 C 2.757812 -27.460938 3.378906 -26.773438 3.992188 -26.023438 C 4.582031 -25.308594 5.105469 -24.542969 5.71875 -23.792969 Z M 5.71875 -23.792969 "/></g></g></g><g fill="#466b3a" fill-opacity="1"><g transform="translate(143.671762, 109.387864)"><g><path d="M 12.171875 -20.6875 C 12.515625 -19.828125 12.894531 -18.980469 13.253906 -18.082031 C 13.59375 -17.21875 13.976562 -16.375 14.316406 -15.515625 L 15.359375 -12.890625 C 15.699219 -12.03125 16.019531 -11.113281 16.359375 -10.253906 C 16.703125 -9.394531 17.003906 -8.515625 17.363281 -7.617188 C 17.394531 -7.539062 17.519531 -7.453125 17.566406 -7.335938 C 17.609375 -7.21875 17.515625 -7 17.414062 -6.914062 L 17.257812 -6.851562 C 17 -6.703125 16.6875 -6.578125 16.414062 -6.46875 C 15.238281 -6.003906 14.074219 -5.632812 12.898438 -5.164062 C 12.78125 -5.117188 12.65625 -4.976562 12.523438 -4.972656 C 12.390625 -4.964844 12.25 -5.089844 12.1875 -5.246094 C 12.101562 -5.347656 11.960938 -5.472656 11.914062 -5.589844 C 11.605469 -6.371094 11.347656 -7.132812 11.039062 -7.914062 C 10.726562 -8.699219 10.511719 -9.472656 10.199219 -10.253906 C 10.167969 -10.332031 10.097656 -10.394531 10.082031 -10.433594 C 9.996094 -10.535156 9.863281 -10.53125 9.769531 -10.539062 L 9.535156 -10.445312 C 8.164062 -9.902344 6.804688 -9.449219 5.472656 -8.921875 C 5.394531 -8.890625 5.316406 -8.859375 5.253906 -8.789062 C 5.136719 -8.742188 5.089844 -8.632812 5.136719 -8.515625 C 5.128906 -8.421875 5.175781 -8.304688 5.207031 -8.226562 C 5.359375 -7.835938 5.476562 -7.429688 5.617188 -7.078125 C 6.097656 -5.863281 6.617188 -4.664062 7.101562 -3.453125 C 7.132812 -3.375 7.203125 -3.3125 7.234375 -3.234375 C 7.273438 -3.023438 7.160156 -2.84375 6.980469 -2.726562 C 6.824219 -2.664062 6.652344 -2.640625 6.496094 -2.578125 C 5.203125 -2.066406 3.898438 -1.59375 2.605469 -1.078125 C 2.488281 -1.035156 2.371094 -0.988281 2.238281 -0.980469 C 2.105469 -0.972656 1.957031 -1.003906 1.910156 -1.121094 C 1.824219 -1.222656 1.738281 -1.324219 1.691406 -1.441406 C 1.304688 -2.421875 0.914062 -3.398438 0.527344 -4.378906 L -0.636719 -7.3125 C -1.027344 -8.289062 -1.335938 -9.300781 -1.722656 -10.277344 C -2.113281 -11.257812 -2.539062 -12.21875 -2.929688 -13.199219 C -3.300781 -14.136719 -3.691406 -15.117188 -4.078125 -16.09375 L -4.359375 -16.796875 C -4.394531 -17.007812 -4.472656 -17.207031 -4.511719 -17.417969 C -4.589844 -17.613281 -4.644531 -17.863281 -4.722656 -18.058594 C -4.871094 -18.542969 -5.015625 -19.027344 -5.070312 -19.503906 C -5.140625 -19.792969 -5.132812 -20.117188 -5.160156 -20.421875 C -5.207031 -20.765625 -5.238281 -21.070312 -5.246094 -21.429688 C -5.273438 -21.734375 -5.265625 -22.054688 -5.257812 -22.375 C -5.242188 -22.5625 -5.304688 -22.71875 -5.289062 -22.90625 C -5.261719 -23.1875 -5.222656 -23.429688 -5.183594 -23.671875 C -5.167969 -23.859375 -5.191406 -24.03125 -5.160156 -24.179688 C -5.128906 -24.328125 -5.042969 -24.453125 -5.007812 -24.601562 C -4.953125 -24.804688 -4.976562 -24.976562 -4.90625 -25.140625 L -4.703125 -25.765625 C -4.574219 -26.132812 -4.433594 -26.460938 -4.253906 -26.804688 C -4.183594 -26.96875 -4.058594 -27.109375 -3.96875 -27.234375 C -3.960938 -27.328125 -3.96875 -27.460938 -3.90625 -27.53125 C -3.796875 -27.710938 -3.65625 -27.8125 -3.546875 -27.992188 C -3.375 -28.242188 -3.269531 -28.554688 -3.082031 -28.765625 L -2.808594 -29.101562 C -2.730469 -29.132812 -2.652344 -29.164062 -2.628906 -29.21875 C -2.527344 -29.304688 -2.480469 -29.414062 -2.378906 -29.5 C -2.226562 -29.695312 -2.039062 -29.902344 -1.835938 -30.074219 C -1.710938 -30.214844 -1.570312 -30.316406 -1.429688 -30.417969 C -1.1875 -30.605469 -0.941406 -30.792969 -0.722656 -30.925781 C -0.417969 -31.183594 -0.0976562 -31.398438 0.183594 -31.601562 C 0.402344 -31.734375 0.65625 -31.789062 0.835938 -31.90625 C 0.992188 -31.96875 1.171875 -32.085938 1.328125 -32.148438 C 1.507812 -32.265625 1.742188 -32.355469 1.9375 -32.433594 C 2.195312 -32.582031 2.414062 -32.714844 2.691406 -32.824219 L 4.765625 -33.648438 C 5.367188 -33.839844 6.578125 -34.097656 7.117188 -33.3125 C 7.621094 -32.609375 7.855469 -31.792969 8.167969 -31.011719 C 8.460938 -30.265625 8.742188 -29.5625 9.019531 -28.859375 L 9.128906 -28.585938 C 9.472656 -27.722656 9.789062 -26.808594 10.132812 -25.945312 C 10.472656 -25.085938 10.789062 -24.171875 11.132812 -23.308594 Z M 5.757812 -21.445312 C 5.429688 -22.269531 5.066406 -23.074219 4.738281 -23.898438 C 4.414062 -24.71875 4.046875 -25.523438 3.71875 -26.347656 L 3.675781 -26.464844 C 3.644531 -26.542969 3.613281 -26.621094 3.542969 -26.683594 C 3.433594 -26.730469 3.339844 -26.738281 3.261719 -26.707031 C 3.144531 -26.660156 3.09375 -26.550781 3.015625 -26.519531 C 2.875 -26.417969 2.757812 -26.375 2.640625 -26.328125 C 2.4375 -26.15625 2.257812 -26.039062 2.078125 -25.921875 C 1.9375 -25.820312 1.8125 -25.679688 1.710938 -25.59375 C 1.621094 -25.46875 1.464844 -25.40625 1.363281 -25.320312 C 1.113281 -25.039062 1.011719 -24.726562 0.832031 -24.382812 C 0.695312 -24.148438 0.5625 -23.914062 0.484375 -23.65625 C 0.421875 -23.359375 0.429688 -23 0.417969 -22.679688 C 0.378906 -22.4375 0.324219 -22.234375 0.339844 -21.96875 C 0.347656 -21.609375 0.351562 -21.25 0.398438 -20.90625 C 0.476562 -20.484375 0.578125 -20.117188 0.691406 -19.710938 C 0.769531 -19.511719 0.886719 -19.332031 0.925781 -19.121094 L 1.175781 -18.496094 C 1.328125 -18.105469 1.40625 -17.683594 1.5625 -17.289062 L 2.664062 -14.511719 C 2.710938 -14.394531 2.78125 -14.332031 2.851562 -14.269531 C 2.898438 -14.152344 3.046875 -14.121094 3.125 -14.152344 C 3.21875 -14.144531 3.296875 -14.175781 3.375 -14.207031 C 4.707031 -14.734375 6.078125 -15.277344 7.390625 -15.84375 C 7.46875 -15.875 7.53125 -15.945312 7.609375 -15.976562 C 7.671875 -16.046875 7.695312 -16.101562 7.6875 -16.234375 L 7.667969 -16.40625 C 7.324219 -17.269531 7.078125 -18.121094 6.75 -18.941406 Z M 5.757812 -21.445312 "/></g></g></g><g fill="#466b3a" fill-opacity="1"><g transform="translate(168.388421, 100.741501)"><g><path d="M 1.207031 -14.988281 C 1.085938 -16.121094 1.007812 -17.253906 0.886719 -18.386719 C 0.761719 -19.558594 0.558594 -20.679688 0.441406 -21.808594 C 0.320312 -22.941406 0.242188 -24.074219 0.121094 -25.207031 C 0.00390625 -26.335938 -0.078125 -27.511719 -0.199219 -28.644531 C -0.21875 -28.8125 -0.234375 -28.980469 -0.210938 -29.152344 C -0.144531 -29.328125 -0.0390625 -29.507812 0.121094 -29.609375 C 0.203125 -29.617188 0.332031 -29.632812 0.410156 -29.683594 C 0.578125 -29.699219 0.75 -29.675781 0.917969 -29.695312 C 1.839844 -29.792969 2.753906 -29.929688 3.675781 -30.027344 C 3.84375 -30.046875 4.015625 -30.023438 4.1875 -29.996094 C 4.320312 -29.925781 4.535156 -29.90625 4.589844 -29.785156 C 4.640625 -29.707031 4.609375 -29.617188 4.617188 -29.535156 C 4.671875 -29.414062 4.769531 -29.296875 4.789062 -29.128906 L 5.101562 -26.15625 C 5.207031 -25.152344 5.355469 -24.152344 5.464844 -23.148438 C 5.570312 -22.140625 5.636719 -21.132812 5.742188 -20.128906 L 6.0625 -17.113281 C 6.167969 -16.109375 6.230469 -15.097656 6.339844 -14.09375 C 6.441406 -13.132812 6.632812 -12.136719 6.738281 -11.128906 C 6.84375 -10.125 6.867188 -9.113281 6.972656 -8.105469 L 7.011719 -7.730469 C 7.027344 -7.605469 7.082031 -7.484375 7.09375 -7.355469 C 7.167969 -7.070312 7.242188 -6.78125 7.433594 -6.546875 C 7.582031 -6.351562 7.730469 -6.15625 7.949219 -6.09375 C 8.210938 -6.035156 8.417969 -6.058594 8.671875 -6.085938 L 8.753906 -6.09375 C 8.796875 -6.097656 8.886719 -6.023438 8.96875 -6.074219 C 9.007812 -6.078125 9.042969 -6.167969 9.085938 -6.171875 C 9.167969 -6.179688 9.257812 -6.148438 9.339844 -6.15625 C 9.882812 -6.214844 10.480469 -6.191406 11.023438 -6.25 C 11.234375 -6.273438 11.398438 -6.289062 11.578125 -6.222656 C 11.753906 -6.15625 11.925781 -6.132812 11.980469 -6.011719 C 12.078125 -5.894531 12.09375 -5.726562 12.109375 -5.601562 C 12.175781 -5.355469 12.117188 -5.136719 12.140625 -4.886719 L 12.398438 -2.457031 C 12.417969 -2.289062 12.480469 -2.085938 12.457031 -1.914062 C 12.40625 -1.613281 12.207031 -1.464844 11.925781 -1.347656 C 11.71875 -1.285156 11.546875 -1.308594 11.378906 -1.292969 C 10.125 -1.15625 8.871094 -0.984375 7.617188 -0.851562 C 6.359375 -0.714844 5.066406 -0.535156 3.808594 -0.402344 C 3.683594 -0.390625 3.511719 -0.414062 3.339844 -0.4375 C 3.171875 -0.421875 3.035156 -0.535156 2.890625 -0.6875 C 2.804688 -0.71875 2.789062 -0.847656 2.78125 -0.929688 C 2.726562 -1.050781 2.625 -1.210938 2.609375 -1.335938 C 2.492188 -2.464844 2.453125 -3.605469 2.335938 -4.734375 C 2.210938 -5.90625 2.046875 -7.035156 1.929688 -8.164062 C 1.808594 -9.296875 1.730469 -10.429688 1.609375 -11.558594 C 1.488281 -12.734375 1.324219 -13.859375 1.207031 -14.988281 Z M 1.207031 -14.988281 "/></g></g></g><g fill="#466b3a" fill-opacity="1"><g transform="translate(187.792579, 99.056088)"><g><path d="M 3.324219 -14.957031 C 3.367188 -15.246094 3.453125 -15.53125 3.578125 -15.8125 C 3.382812 -15.925781 4.160156 -17.683594 4.289062 -17.960938 C 4.78125 -19.25 5.515625 -20.457031 6.316406 -21.53125 C 6.675781 -21.945312 7.042969 -22.398438 7.441406 -22.765625 C 8.292969 -23.617188 9.3125 -24.441406 10.339844 -25.050781 C 10.484375 -25.160156 10.621094 -25.222656 10.757812 -25.289062 C 10.808594 -25.324219 10.894531 -25.351562 10.949219 -25.429688 L 12.375 -26.109375 C 12.460938 -26.136719 12.628906 -26.113281 12.726562 -26.183594 C 12.855469 -26.207031 12.992188 -26.269531 13.125 -26.292969 C 13.171875 -26.328125 13.183594 -26.410156 13.226562 -26.40625 C 13.234375 -26.445312 13.269531 -26.398438 13.308594 -26.394531 C 13.40625 -26.464844 13.542969 -26.527344 13.675781 -26.550781 C 13.769531 -26.621094 13.894531 -26.601562 13.992188 -26.671875 C 14.074219 -26.660156 14.128906 -26.738281 14.171875 -26.730469 C 14.390625 -26.78125 14.605469 -26.792969 14.785156 -26.851562 C 14.957031 -26.867188 15.171875 -26.878906 15.351562 -26.9375 C 15.433594 -26.921875 15.496094 -27.042969 15.578125 -27.03125 C 15.625 -27.066406 15.710938 -27.050781 15.792969 -27.039062 C 15.839844 -27.074219 15.917969 -27.019531 15.960938 -27.015625 C 16.046875 -27.042969 16.132812 -27.03125 16.222656 -27.058594 C 16.304688 -27.046875 16.402344 -27.117188 16.488281 -27.148438 C 16.578125 -27.175781 16.664062 -27.164062 16.746094 -27.152344 L 17.609375 -27.234375 C 17.777344 -27.207031 17.984375 -27.175781 18.199219 -27.1875 C 18.324219 -27.167969 18.460938 -27.234375 18.585938 -27.214844 C 18.800781 -27.222656 18.960938 -27.15625 19.175781 -27.167969 C 19.640625 -27.140625 20.078125 -26.945312 20.265625 -26.492188 C 20.332031 -26.355469 20.304688 -26.1875 20.328125 -26.058594 C 20.304688 -25.335938 20.238281 -24.621094 20.132812 -23.914062 C 20.070312 -23.5 20.007812 -23.082031 19.910156 -22.714844 C 19.746094 -21.929688 19.46875 -21.203125 18.53125 -21.21875 L 18.367188 -21.242188 C 18.277344 -21.214844 18.199219 -21.269531 18.117188 -21.28125 L 17.515625 -21.242188 C 15.019531 -21.066406 12.523438 -19.78125 10.992188 -17.800781 C 10.882812 -17.648438 10.859375 -17.480469 10.75 -17.324219 L 10.539062 -17.058594 C 10.527344 -16.976562 10.601562 -16.921875 10.597656 -16.878906 C 10.585938 -16.796875 10.53125 -16.71875 10.601562 -16.625 C 10.628906 -16.535156 10.699219 -16.4375 10.777344 -16.386719 C 10.9375 -16.316406 11.070312 -16.339844 11.234375 -16.316406 C 11.402344 -16.289062 11.605469 -16.21875 11.769531 -16.191406 C 11.8125 -16.1875 11.8125 -16.1875 11.8125 -16.1875 L 11.9375 -16.167969 C 11.984375 -16.203125 12.015625 -16.113281 12.054688 -16.105469 C 12.847656 -15.988281 13.636719 -15.867188 14.433594 -15.789062 C 14.851562 -15.726562 15.226562 -15.671875 15.605469 -15.65625 C 15.941406 -15.605469 16.261719 -15.472656 16.59375 -15.421875 L 16.675781 -15.410156 C 16.96875 -15.363281 17.382812 -15.300781 17.621094 -15.179688 C 17.65625 -15.132812 17.65625 -15.132812 17.699219 -15.128906 C 17.921875 -14.921875 18.050781 -14.648438 18.050781 -14.351562 C 18.066406 -14.175781 18.035156 -13.96875 18.007812 -13.800781 C 17.964844 -13.511719 17.914062 -13.179688 17.871094 -12.886719 L 17.640625 -11.347656 C 17.632812 -11.304688 17.585938 -11.269531 17.585938 -11.269531 C 17.578125 -11.226562 17.65625 -11.171875 17.644531 -11.089844 C 17.574219 -10.632812 17.460938 -9.882812 16.992188 -9.613281 C 16.625 -9.414062 16.285156 -9.421875 15.910156 -9.476562 C 15.660156 -9.515625 15.449219 -9.546875 15.207031 -9.625 C 14.464844 -9.78125 13.621094 -9.824219 12.871094 -9.9375 C 12.039062 -10.0625 11.253906 -10.222656 10.460938 -10.34375 C 10.292969 -10.367188 10.085938 -10.398438 9.90625 -10.34375 C 9.777344 -10.320312 9.679688 -10.25 9.625 -10.171875 C 9.53125 -10.101562 9.476562 -10.023438 9.464844 -9.941406 C 9.449219 -9.855469 9.398438 -9.78125 9.425781 -9.691406 C 9.40625 -9.566406 9.476562 -9.46875 9.542969 -9.332031 C 9.535156 -9.289062 9.53125 -9.25 9.523438 -9.207031 L 9.738281 -8.664062 C 9.828125 -8.394531 10.046875 -8.148438 10.171875 -7.875 C 10.402344 -7.414062 10.691406 -7.074219 11.007812 -6.640625 C 11.15625 -6.492188 11.210938 -6.269531 11.351562 -6.078125 C 11.714844 -5.683594 12.296875 -5.296875 12.753906 -4.929688 C 13.402344 -4.449219 14.144531 -3.996094 14.910156 -3.710938 C 14.988281 -3.65625 15.113281 -3.636719 15.238281 -3.617188 C 15.398438 -3.550781 15.5625 -3.527344 15.683594 -3.464844 C 15.882812 -3.394531 16.042969 -3.324219 16.242188 -3.210938 C 16.359375 -3.152344 16.429688 -3.054688 16.535156 -2.910156 C 16.605469 -2.816406 16.683594 -2.761719 16.710938 -2.671875 C 16.804688 -2.445312 16.785156 -2.320312 16.769531 -2.195312 C 16.753906 -2.113281 16.742188 -2.027344 16.730469 -1.945312 L 16.707031 -1.777344 C 16.695312 -1.4375 16.644531 -1.105469 16.597656 -0.773438 C 16.539062 -0.398438 16.488281 -0.0664062 16.390625 0.304688 C 16.339844 0.636719 16.289062 0.96875 16.199219 1.296875 C 16.160156 1.546875 16.144531 1.925781 16.03125 2.121094 C 16.019531 2.207031 15.921875 2.277344 15.867188 2.351562 L 15.730469 2.417969 C 15.683594 2.453125 15.550781 2.476562 15.511719 2.46875 C 15.242188 2.558594 15.027344 2.566406 14.820312 2.535156 C 14.652344 2.511719 14.484375 2.484375 14.375 2.382812 C 14.214844 2.316406 14.039062 2.332031 13.875 2.308594 C 13.628906 2.226562 13.386719 2.148438 13.191406 2.035156 C 13.148438 2.027344 13.058594 2.058594 13.023438 2.007812 C 12.859375 1.984375 12.753906 1.839844 12.59375 1.773438 C 12.515625 1.71875 12.378906 1.785156 12.257812 1.722656 C 12.058594 1.648438 11.820312 1.527344 11.625 1.414062 C 11.234375 1.183594 10.847656 0.914062 10.449219 0.726562 C 10.09375 0.542969 9.734375 0.40625 9.425781 0.1875 C 9.347656 0.132812 9.277344 0.0390625 9.371094 -0.03125 C 9.089844 0.136719 8 -1.089844 7.851562 -1.242188 C 7.699219 -1.351562 7.539062 -1.417969 7.390625 -1.566406 C 7.285156 -1.710938 7.136719 -1.859375 6.988281 -2.011719 C 6.695312 -2.3125 6.457031 -2.730469 6.167969 -3.070312 C 5.664062 -3.660156 5.1875 -4.453125 4.78125 -5.15625 L 4.515625 -5.664062 C 4.386719 -5.9375 4.347656 -6.242188 4.226562 -6.558594 C 4.160156 -6.695312 4.089844 -6.792969 4.027344 -6.929688 L 4.011719 -7.101562 C 3.824219 -7.554688 3.601562 -8.058594 3.496094 -8.5 C 3.414062 -9.066406 3.238281 -9.601562 3.1875 -10.121094 L 3.125 -10.558594 C 3.105469 -10.6875 3.164062 -10.804688 3.140625 -10.9375 C 3.125 -11.109375 3.144531 -11.234375 3.167969 -11.402344 C 3.152344 -11.574219 3.046875 -11.71875 3.03125 -11.890625 C 3.027344 -12.148438 3.0625 -12.398438 3.058594 -12.652344 C 3.070312 -12.992188 3.113281 -13.285156 3.164062 -13.617188 C 3.183594 -14.039062 3.253906 -14.496094 3.324219 -14.957031 Z M 3.324219 -14.957031 "/></g></g></g><g fill="#466b3a" fill-opacity="1"><g transform="translate(210.153947, 102.820667)"><g><path d="M 8.257812 -12.492188 C 8.632812 -13.292969 8.992188 -14.148438 9.367188 -14.949219 C 9.761719 -15.785156 10.214844 -16.550781 10.609375 -17.390625 C 10.988281 -18.1875 11.304688 -19.0625 11.683594 -19.863281 L 12.847656 -22.339844 C 13.226562 -23.136719 13.65625 -23.957031 14.035156 -24.757812 C 14.125 -24.949219 14.195312 -25.101562 14.304688 -25.234375 C 14.414062 -25.371094 14.585938 -25.429688 14.734375 -25.453125 C 14.882812 -25.476562 14.980469 -25.382812 15.152344 -25.351562 C 15.472656 -25.246094 15.796875 -25.140625 16.101562 -24.996094 C 17.089844 -24.527344 18.027344 -23.949219 19.019531 -23.480469 C 20.675781 -22.75 21.871094 -22.230469 22.007812 -22.121094 C 22.199219 -22.03125 22.40625 -21.980469 22.558594 -21.90625 L 22.863281 -21.765625 C 22.960938 -21.671875 23.054688 -21.578125 23.132812 -21.542969 C 23.457031 -21.34375 23.691406 -21.046875 23.957031 -20.828125 C 24.226562 -20.609375 24.496094 -20.390625 24.746094 -20.132812 L 25.171875 -19.652344 C 25.269531 -19.558594 25.367188 -19.375 25.445312 -19.242188 C 25.582031 -19.132812 25.660156 -19.003906 25.753906 -18.914062 C 25.777344 -18.855469 25.871094 -18.859375 25.90625 -18.839844 L 26.476562 -17.875 C 26.539062 -17.707031 26.617188 -17.480469 26.714844 -17.296875 C 26.777344 -17.128906 26.859375 -16.902344 26.957031 -16.71875 C 27.035156 -16.492188 27.023438 -16.265625 27.105469 -16.042969 C 27.167969 -15.78125 27.324219 -15.519531 27.367188 -15.222656 C 27.410156 -15.015625 27.433594 -14.769531 27.460938 -14.527344 C 27.523438 -14.265625 27.546875 -14.019531 27.570312 -13.773438 L 27.539062 -13.605469 C 27.566406 -13.265625 27.496094 -12.925781 27.46875 -12.566406 C 27.457031 -12.246094 27.367188 -11.960938 27.320312 -11.660156 C 27.304688 -11.433594 27.273438 -11.167969 27.222656 -10.960938 C 27.191406 -10.695312 27.046875 -10.484375 26.976562 -10.238281 C 26.90625 -10.085938 26.945312 -9.878906 26.855469 -9.691406 C 26.855469 -9.691406 26.820312 -9.707031 26.820312 -9.707031 L 26.460938 -8.945312 C 26.390625 -8.792969 26.277344 -8.660156 26.207031 -8.507812 C 26.152344 -8.394531 26.117188 -8.316406 26.082031 -8.242188 L 25.609375 -7.53125 C 25.480469 -7.359375 25.390625 -7.167969 25.261719 -6.996094 C 25.0625 -6.765625 24.800781 -6.609375 24.5625 -6.398438 C 24.394531 -6.242188 24.25 -6.03125 24.082031 -5.875 C 23.898438 -5.777344 23.730469 -5.625 23.585938 -5.507812 C 23.4375 -5.390625 23.308594 -5.21875 23.160156 -5.101562 C 22.957031 -4.964844 22.75 -4.921875 22.5625 -4.824219 C 22.304688 -4.667969 22.042969 -4.511719 21.800781 -4.390625 C 21.726562 -4.332031 21.710938 -4.296875 21.675781 -4.21875 C 21.582031 -4.121094 21.492188 -4.027344 21.511719 -3.875 C 21.535156 -3.726562 21.558594 -3.578125 21.617188 -3.40625 C 21.644531 -3.070312 21.765625 -2.734375 21.792969 -2.394531 C 21.800781 -2.113281 21.789062 -1.792969 21.757812 -1.527344 C 21.761719 -1.339844 21.820312 -1.171875 21.789062 -1 C 21.777344 -0.679688 21.652344 -0.414062 21.582031 -0.0742188 C 21.515625 0.171875 21.539062 0.511719 21.433594 0.738281 C 21.398438 0.910156 21.234375 1.066406 21.160156 1.21875 L 20.839844 1.902344 C 20.390625 2.855469 19.980469 3.824219 19.550781 4.738281 C 19.101562 5.691406 18.652344 6.644531 18.222656 7.558594 L 18.078125 7.863281 C 17.984375 7.960938 17.894531 8.054688 17.78125 8.097656 L 17.613281 8.15625 C 17.464844 8.179688 17.292969 8.144531 17.179688 8.089844 C 17.140625 8.074219 17.140625 8.074219 17.101562 8.054688 L 13.21875 6.226562 C 13.101562 6.171875 13.007812 6.078125 12.910156 5.988281 C 12.757812 5.820312 12.621094 5.617188 12.6875 5.371094 C 12.726562 5.296875 12.855469 5.21875 12.890625 5.140625 C 13.304688 4.265625 13.679688 3.371094 14.089844 2.496094 C 14.503906 1.617188 14.953125 0.761719 15.367188 -0.117188 C 15.4375 -0.363281 15.484375 -0.664062 15.59375 -0.894531 C 15.714844 -1.253906 15.820312 -1.578125 15.832031 -1.898438 C 15.808594 -2.140625 15.839844 -2.40625 15.757812 -2.628906 C 15.660156 -2.910156 15.484375 -3.132812 15.269531 -3.371094 C 15.191406 -3.503906 15.039062 -3.574219 14.945312 -3.664062 C 14.734375 -3.8125 14.558594 -4.035156 14.332031 -4.140625 L 14.292969 -4.160156 C 13.988281 -4.300781 13.664062 -4.40625 13.320312 -4.570312 C 13.015625 -4.714844 12.695312 -4.820312 12.351562 -4.980469 L 11.855469 -5.214844 C 11.761719 -5.210938 11.628906 -5.320312 11.515625 -5.28125 C 11.460938 -5.261719 11.402344 -5.238281 11.386719 -5.203125 C 11.3125 -5.144531 11.257812 -5.03125 11.203125 -4.914062 C 10.789062 -4.132812 10.472656 -3.257812 10.09375 -2.460938 C 9.71875 -1.660156 9.285156 -0.839844 8.90625 -0.0390625 C 8.53125 0.761719 8.175781 1.617188 7.796875 2.417969 C 7.742188 2.53125 7.632812 2.570312 7.539062 2.667969 C 7.46875 2.820312 7.359375 2.953125 7.171875 2.957031 C 7.113281 2.976562 7.019531 2.980469 6.886719 2.964844 C 6.8125 2.929688 6.679688 2.914062 6.566406 2.859375 C 5.308594 2.265625 4.105469 1.65625 2.886719 1.082031 C 2.773438 1.027344 2.585938 1.03125 2.527344 0.957031 C 2.316406 0.8125 2.292969 0.566406 2.324219 0.304688 L 2.371094 -0.09375 C 2.40625 -0.167969 2.535156 -0.246094 2.574219 -0.324219 L 4.007812 -3.371094 C 4.492188 -4.398438 4.957031 -5.390625 5.441406 -6.417969 L 6.859375 -9.429688 C 7.34375 -10.457031 7.773438 -11.464844 8.257812 -12.492188 Z M 15.617188 -14.285156 C 15.207031 -13.410156 14.847656 -12.554688 14.4375 -11.675781 C 14.382812 -11.5625 14.289062 -11.46875 14.21875 -11.316406 L 14.183594 -11.238281 C 14.148438 -11.164062 14.203125 -11.089844 14.1875 -11.050781 C 14.1875 -10.957031 14.210938 -10.898438 14.25 -10.789062 C 14.308594 -10.714844 14.347656 -10.601562 14.460938 -10.546875 L 15.375 -10.117188 C 15.699219 -10.011719 15.984375 -9.832031 16.308594 -9.726562 C 16.460938 -9.652344 16.632812 -9.527344 16.804688 -9.492188 C 17.222656 -9.386719 17.632812 -9.472656 18.066406 -9.503906 C 18.308594 -9.527344 18.554688 -9.457031 18.78125 -9.539062 C 18.949219 -9.597656 19.117188 -9.660156 19.304688 -9.757812 C 19.527344 -9.839844 19.765625 -10.050781 19.972656 -10.1875 C 20.175781 -10.324219 20.300781 -10.496094 20.46875 -10.652344 C 20.632812 -10.804688 20.800781 -10.960938 20.90625 -11.1875 C 21.019531 -11.324219 21.148438 -11.402344 21.21875 -11.554688 C 21.347656 -11.726562 21.34375 -11.914062 21.433594 -12.105469 C 21.519531 -12.390625 21.550781 -12.65625 21.601562 -12.957031 C 21.632812 -13.222656 21.644531 -13.542969 21.597656 -13.84375 L 21.433594 -14.480469 C 21.390625 -14.683594 21.199219 -14.867188 21.101562 -15.054688 C 20.964844 -15.257812 20.863281 -15.445312 20.726562 -15.648438 L 20.300781 -16.128906 C 20.167969 -16.238281 20.070312 -16.332031 19.917969 -16.402344 C 19.859375 -16.476562 19.78125 -16.605469 19.707031 -16.640625 C 19.59375 -16.695312 19.421875 -16.730469 19.308594 -16.785156 L 17.820312 -17.484375 C 17.746094 -17.519531 17.652344 -17.515625 17.574219 -17.550781 C 17.421875 -17.625 17.273438 -17.507812 17.183594 -17.410156 C 17.09375 -17.222656 16.945312 -17.105469 16.855469 -16.914062 Z M 15.617188 -14.285156 "/></g></g></g><g fill="#466b3a" fill-opacity="1"><g transform="translate(233.085689, 114.388763)"><g><path d="M 29.351562 -4.757812 C 28.753906 -4.105469 28.097656 -3.449219 27.503906 -2.796875 C 26.878906 -2.113281 26.28125 -1.460938 25.714844 -0.78125 C 25.570312 -0.625 25.429688 -0.472656 25.285156 -0.375 C 25.171875 -0.25 25.054688 -0.1875 24.941406 -0.0625 C 24.796875 0.0351562 24.714844 0.1875 24.597656 0.25 L 23.785156 0.765625 C 23.492188 0.894531 23.203125 1.027344 22.878906 1.132812 C 22.558594 1.296875 22.234375 1.398438 21.878906 1.472656 C 21.644531 1.542969 21.320312 1.648438 21.054688 1.691406 C 20.789062 1.730469 20.546875 1.683594 20.28125 1.722656 C 20.074219 1.703125 19.863281 1.683594 19.683594 1.691406 C 19.507812 1.699219 19.359375 1.792969 19.183594 1.800781 L 18.761719 1.703125 C 18.460938 1.65625 18.191406 1.636719 17.953125 1.589844 C 17.800781 1.566406 17.707031 1.480469 17.589844 1.484375 C 17.46875 1.429688 17.316406 1.410156 17.195312 1.355469 L 16.988281 1.332031 C 16.894531 1.308594 16.808594 1.339844 16.71875 1.375 L 16.492188 1.625 C 15.808594 2.371094 15.039062 3.089844 14.355469 3.835938 C 13.644531 4.609375 12.992188 5.382812 12.28125 6.160156 L 10.207031 8.429688 C 10.121094 8.523438 10.097656 8.613281 10.011719 8.707031 C 9.894531 8.769531 9.71875 8.777344 9.597656 8.785156 C 9.539062 8.785156 9.507812 8.757812 9.476562 8.730469 C 9.386719 8.703125 9.296875 8.679688 9.203125 8.59375 L 7.523438 7.058594 C 6.933594 6.515625 6.402344 5.976562 5.84375 5.464844 C 5.75 5.378906 5.75 5.316406 5.683594 5.203125 C 5.621094 5.085938 5.613281 4.964844 5.667969 4.84375 C 5.695312 4.753906 5.71875 4.664062 5.804688 4.570312 C 5.890625 4.476562 5.972656 4.324219 6.085938 4.199219 C 6.742188 3.484375 7.457031 2.828125 8.140625 2.082031 C 8.792969 1.367188 9.382812 0.597656 10.066406 -0.148438 C 10.71875 -0.863281 11.4375 -1.519531 12.117188 -2.265625 C 12.175781 -2.328125 12.261719 -2.421875 12.285156 -2.511719 C 12.429688 -2.667969 12.480469 -2.847656 12.414062 -3.023438 C 12.347656 -3.140625 12.3125 -3.226562 12.308594 -3.347656 C 12.246094 -3.464844 12.207031 -3.609375 12.144531 -3.726562 C 12.074219 -3.960938 11.914062 -4.164062 11.875 -4.429688 C 11.773438 -4.695312 11.820312 -4.992188 11.777344 -5.261719 C 11.734375 -5.527344 11.753906 -5.796875 11.742188 -6.035156 C 11.726562 -6.390625 11.710938 -6.746094 11.753906 -7.105469 C 11.769531 -7.433594 11.757812 -7.734375 11.832031 -8.0625 C 11.90625 -8.394531 12.011719 -8.699219 12.144531 -9.03125 C 12.195312 -9.273438 12.277344 -9.484375 12.355469 -9.695312 C 12.546875 -10.09375 12.738281 -10.488281 12.960938 -10.855469 C 13.101562 -11.011719 13.273438 -11.136719 13.386719 -11.320312 C 13.527344 -11.476562 13.640625 -11.660156 13.8125 -11.789062 C 13.839844 -11.820312 13.777344 -11.933594 13.832031 -11.996094 C 13.832031 -11.996094 13.921875 -11.972656 13.921875 -11.972656 L 14.09375 -12.15625 C 14.863281 -12.996094 15.539062 -13.859375 16.304688 -14.699219 C 17.074219 -15.539062 17.871094 -16.347656 18.609375 -17.15625 C 19.378906 -17.996094 20.175781 -18.804688 20.917969 -19.613281 C 20.972656 -19.675781 21.03125 -19.675781 21.089844 -19.738281 C 21.175781 -19.832031 21.257812 -19.984375 21.40625 -20.019531 C 21.550781 -20.058594 21.667969 -20.121094 21.761719 -20.039062 C 21.882812 -19.984375 21.945312 -19.925781 22.039062 -19.839844 C 22.503906 -19.414062 23 -19.019531 23.496094 -18.5625 L 23.777344 -18.25 C 23.902344 -18.136719 24.023438 -18.082031 24.148438 -17.96875 C 24.582031 -17.570312 24.929688 -17.136719 25.332031 -16.769531 C 25.394531 -16.710938 25.515625 -16.714844 25.546875 -16.6875 C 25.671875 -16.515625 25.683594 -16.277344 25.574219 -16.09375 C 25.519531 -15.972656 25.371094 -15.933594 25.253906 -15.871094 C 25.226562 -15.839844 25.257812 -15.75 25.230469 -15.71875 C 24.492188 -14.914062 23.695312 -14.101562 22.925781 -13.265625 C 22.1875 -12.457031 21.386719 -11.644531 20.621094 -10.808594 C 19.882812 -10 19.144531 -9.132812 18.378906 -8.292969 C 18.265625 -8.171875 18.179688 -8.015625 18.039062 -7.863281 C 17.898438 -7.648438 17.792969 -7.402344 17.65625 -7.128906 C 17.660156 -7.011719 17.515625 -6.914062 17.492188 -6.765625 C 17.464844 -6.675781 17.5625 -6.53125 17.539062 -6.378906 L 17.542969 -6.261719 C 17.582031 -6.113281 17.558594 -5.964844 17.566406 -5.785156 C 17.667969 -5.460938 17.773438 -5.136719 17.992188 -4.878906 C 18.089844 -4.734375 18.296875 -4.714844 18.421875 -4.601562 C 18.609375 -4.429688 18.792969 -4.320312 19.03125 -4.269531 C 19.277344 -4.160156 19.546875 -4.085938 19.875 -4.070312 C 20.054688 -4.078125 20.234375 -4.085938 20.410156 -4.152344 C 20.644531 -4.222656 20.847656 -4.320312 21.023438 -4.449219 C 21.078125 -4.511719 21.164062 -4.601562 21.25 -4.636719 C 21.335938 -4.730469 21.484375 -4.765625 21.597656 -4.890625 C 22.253906 -5.605469 22.875 -6.347656 23.527344 -7.0625 C 24.183594 -7.777344 24.804688 -8.519531 25.488281 -9.265625 C 26 -9.824219 26.570312 -10.386719 27.109375 -10.976562 C 27.648438 -11.566406 28.253906 -12.097656 28.765625 -12.660156 C 28.847656 -12.75 28.84375 -12.871094 28.929688 -12.964844 C 29.074219 -13.058594 29.339844 -13.101562 29.492188 -13.019531 C 29.582031 -12.992188 29.644531 -12.9375 29.707031 -12.878906 C 30.265625 -12.367188 30.769531 -11.792969 31.328125 -11.28125 C 31.917969 -10.742188 32.507812 -10.261719 33.066406 -9.75 L 33.253906 -9.519531 C 33.289062 -9.371094 33.296875 -9.253906 33.214844 -9.101562 C 33.15625 -9.039062 33.128906 -8.949219 33.046875 -8.855469 C 32.25 -7.984375 31.457031 -7.054688 30.660156 -6.1875 C 30.234375 -5.71875 29.746094 -5.25 29.320312 -4.785156 Z M 29.351562 -4.757812 "/></g></g></g><g fill="#466b3a" fill-opacity="1"><g transform="translate(80.009553, 238.991975)"><g><path d="M 16.660156 11.6875 C 15.898438 12.136719 15.113281 12.546875 14.351562 12.996094 C 13.589844 13.445312 12.886719 13.910156 12.125 14.359375 C 11.363281 14.808594 10.558594 15.183594 9.796875 15.632812 C 9.726562 15.675781 9.652344 15.71875 9.558594 15.722656 C 9.464844 15.730469 9.390625 15.773438 9.292969 15.6875 L 9.183594 15.503906 C 8.714844 14.707031 8.265625 13.945312 7.796875 13.148438 L 7.539062 12.710938 C 7.53125 12.617188 7.503906 12.488281 7.460938 12.414062 L 7.121094 11.835938 C 7.070312 11.667969 6.964844 11.488281 6.894531 11.285156 C 6.75 10.878906 6.648438 10.453125 6.542969 10.023438 C 6.472656 9.820312 6.363281 9.640625 6.332031 9.417969 C 6.273438 9.15625 6.3125 8.890625 6.257812 8.628906 L 6.128906 8.164062 C 6.132812 7.917969 6.078125 7.660156 6.042969 7.433594 C 6.03125 7.246094 6.074219 7.074219 6.046875 6.945312 C 6.027344 6.664062 6.007812 6.378906 6.007812 6.136719 C 5.980469 6.003906 6.046875 5.867188 6.078125 5.753906 C 6.082031 5.261719 6.027344 4.757812 6.089844 4.28125 C 6.113281 4.070312 6.171875 3.839844 6.175781 3.59375 C 6.21875 3.421875 6.226562 3.269531 6.25 3.0625 C 6.289062 3.039062 6.265625 3.003906 6.300781 2.980469 C 6.375 2.695312 6.488281 2.382812 6.578125 2.039062 L 6.730469 1.554688 C 6.777344 1.382812 6.800781 1.171875 6.882812 0.980469 C 6.960938 0.785156 7.121094 0.640625 7.203125 0.445312 C 7.3125 0.136719 7.425781 -0.171875 7.59375 -0.464844 C 7.761719 -0.761719 7.851562 -1.105469 8.019531 -1.402344 C 8.121094 -1.558594 8.339844 -1.6875 8.421875 -1.882812 C 8.710938 -2.300781 8.96875 -2.695312 9.316406 -3.097656 C 9.441406 -3.21875 9.542969 -3.375 9.667969 -3.496094 C 9.808594 -3.675781 9.925781 -3.894531 10.082031 -4.035156 C 10.1875 -4.195312 10.390625 -4.265625 10.550781 -4.40625 C 10.6875 -4.585938 10.847656 -4.730469 11.007812 -4.875 L 11.597656 -5.367188 C 11.71875 -5.488281 11.859375 -5.667969 12.003906 -5.753906 C 12.113281 -5.816406 12.226562 -5.789062 12.28125 -5.867188 C 12.316406 -5.886719 12.292969 -5.925781 12.292969 -5.925781 C 12.476562 -6.03125 12.671875 -6.195312 12.851562 -6.304688 L 13 -6.386719 C 13.011719 -6.445312 13.050781 -6.46875 13.050781 -6.46875 C 13.214844 -6.515625 13.324219 -6.582031 13.414062 -6.679688 L 13.46875 -6.667969 C 13.636719 -6.714844 13.703125 -6.851562 13.8125 -6.917969 L 14.347656 -7.085938 C 14.417969 -7.128906 14.492188 -7.171875 14.585938 -7.175781 C 14.730469 -7.261719 14.898438 -7.3125 15.101562 -7.382812 C 15.246094 -7.46875 15.410156 -7.515625 15.578125 -7.566406 C 15.761719 -7.671875 15.941406 -7.78125 16.109375 -7.828125 C 16.347656 -7.921875 16.527344 -8.027344 16.753906 -8.0625 C 16.953125 -8.132812 17.199219 -8.132812 17.402344 -8.203125 C 17.460938 -8.1875 17.460938 -8.1875 17.496094 -8.207031 C 17.792969 -8.285156 18.074219 -8.304688 18.359375 -8.324219 C 18.488281 -8.351562 18.632812 -8.4375 18.761719 -8.464844 C 18.988281 -8.5 19.253906 -8.460938 19.5 -8.460938 C 19.535156 -8.480469 19.609375 -8.523438 19.703125 -8.53125 C 20.097656 -8.519531 20.476562 -8.546875 20.835938 -8.515625 C 21.175781 -8.519531 21.457031 -8.539062 21.761719 -8.519531 C 21.96875 -8.496094 22.195312 -8.53125 22.402344 -8.507812 C 22.613281 -8.484375 22.820312 -8.460938 23.015625 -8.382812 C 23.167969 -8.371094 23.28125 -8.34375 23.457031 -8.296875 C 23.6875 -8.238281 23.96875 -8.257812 24.234375 -8.21875 C 24.351562 -8.191406 24.433594 -8.046875 24.550781 -8.015625 L 24.933594 -7.945312 C 25.046875 -7.917969 25.183594 -7.851562 25.320312 -7.785156 L 25.609375 -7.710938 C 25.6875 -7.660156 25.855469 -7.707031 25.933594 -7.65625 C 26.164062 -7.597656 26.378906 -7.480469 26.609375 -7.421875 C 27.019531 -7.222656 27.394531 -7.003906 27.769531 -6.785156 C 28.042969 -6.652344 28.277344 -6.496094 28.496094 -6.378906 C 28.730469 -6.226562 28.953125 -6.015625 29.191406 -5.863281 C 29.527344 -5.621094 29.886719 -5.34375 30.210938 -5.046875 C 30.390625 -4.90625 30.53125 -4.746094 30.691406 -4.644531 C 30.832031 -4.484375 30.992188 -4.382812 31.171875 -4.242188 C 31.292969 -4.121094 31.429688 -4.054688 31.550781 -3.929688 C 31.652344 -3.84375 31.714844 -3.734375 31.816406 -3.644531 C 31.9375 -3.523438 31.972656 -3.296875 32.058594 -3.152344 C 32.179688 -3.03125 32.375 -2.949219 32.460938 -2.804688 C 32.558594 -2.714844 32.574219 -2.527344 32.695312 -2.40625 L 32.824219 -2.1875 C 32.921875 -2.097656 32.964844 -2.027344 33.007812 -1.953125 C 33.050781 -1.882812 33.128906 -1.832031 33.210938 -1.78125 L 33.421875 -1.417969 C 33.445312 -1.378906 33.488281 -1.308594 33.507812 -1.273438 L 34.171875 -0.148438 C 34.304688 0.164062 34.59375 0.484375 34.617188 0.859375 C 34.660156 1.179688 34.40625 1.328125 34.152344 1.476562 C 33.96875 1.585938 33.789062 1.691406 33.609375 1.796875 L 32.484375 2.460938 C 32.070312 2.753906 31.632812 3.011719 31.199219 3.265625 C 30.871094 3.460938 30.441406 3.808594 30.097656 3.472656 C 29.589844 2.945312 29.386719 2.183594 28.988281 1.589844 C 28.859375 1.371094 28.730469 1.152344 28.566406 0.957031 C 28.480469 0.8125 28.335938 0.652344 28.253906 0.507812 C 28.109375 0.347656 28.039062 0.144531 27.894531 -0.015625 C 27.652344 -0.265625 27.371094 -0.488281 27.128906 -0.738281 C 26.90625 -0.949219 26.648438 -1.136719 26.390625 -1.328125 L 25.871094 -1.707031 C 25.757812 -1.738281 25.679688 -1.789062 25.578125 -1.875 C 25.363281 -1.992188 25.160156 -2.167969 24.945312 -2.285156 L 24.269531 -2.523438 C 24.191406 -2.574219 24.039062 -2.582031 23.921875 -2.613281 C 23.765625 -2.714844 23.605469 -2.816406 23.433594 -2.859375 L 23.296875 -2.925781 C 23.125 -2.972656 22.992188 -2.945312 22.820312 -2.988281 C 22.648438 -3.035156 22.4375 -3.054688 22.230469 -3.078125 C 21.941406 -3.15625 21.652344 -3.230469 21.328125 -3.28125 L 20.835938 -3.285156 C 20.5 -3.28125 20.121094 -3.253906 19.804688 -3.214844 C 19.582031 -3.179688 19.378906 -3.109375 19.210938 -3.0625 C 18.949219 -3.003906 18.683594 -3.042969 18.421875 -2.988281 C 18.089844 -2.890625 17.742188 -2.734375 17.429688 -2.597656 C 17.265625 -2.550781 17.097656 -2.5 16.953125 -2.414062 C 16.859375 -2.40625 16.75 -2.34375 16.675781 -2.300781 C 16.511719 -2.25 16.386719 -2.128906 16.242188 -2.042969 C 16.167969 -2 16.113281 -2.015625 16.039062 -1.972656 C 15.96875 -1.929688 15.871094 -1.925781 15.765625 -1.859375 C 15.617188 -1.773438 15.496094 -1.652344 15.3125 -1.546875 C 15.242188 -1.503906 15.210938 -1.386719 15.140625 -1.34375 C 14.921875 -1.21875 14.710938 -0.996094 14.515625 -0.832031 L 14.179688 -0.488281 C 14.054688 -0.363281 13.910156 -0.277344 13.808594 -0.121094 L 13.683594 0 C 13.496094 0.257812 13.261719 0.445312 13.109375 0.683594 C 12.992188 0.898438 12.792969 1.0625 12.675781 1.277344 C 12.472656 1.59375 12.3125 1.984375 12.128906 2.335938 C 12.066406 2.566406 12.007812 2.796875 11.914062 3.046875 C 11.882812 3.164062 11.773438 3.226562 11.707031 3.363281 C 11.625 3.558594 11.660156 3.78125 11.578125 3.976562 C 11.570312 4.128906 11.527344 4.300781 11.480469 4.472656 L 11.449219 5.082031 C 11.402344 5.5 11.296875 5.902344 11.308594 6.335938 C 11.285156 6.546875 11.378906 6.785156 11.375 7.03125 L 11.457031 7.667969 C 11.492188 7.890625 11.503906 8.078125 11.734375 8.136719 C 11.90625 8.183594 12.074219 8.132812 12.242188 8.085938 C 12.589844 7.929688 12.855469 7.71875 13.183594 7.527344 C 14.054688 7.015625 14.902344 6.464844 15.773438 5.953125 L 16.210938 5.695312 C 16.332031 5.574219 16.449219 5.359375 16.34375 5.175781 C 16.316406 5.046875 16.289062 4.917969 16.222656 4.808594 C 16.054688 4.519531 15.917969 4.207031 15.726562 3.878906 C 15.660156 3.769531 15.574219 3.625 15.640625 3.488281 C 15.707031 3.351562 15.867188 3.210938 16.035156 3.160156 L 17.015625 2.582031 C 17.339844 2.390625 17.703125 2.175781 18.066406 1.964844 L 19.734375 0.980469 C 19.988281 0.832031 20.132812 0.992188 20.261719 1.207031 C 20.875 2.167969 21.394531 3.132812 21.96875 4.109375 L 22.976562 5.816406 C 23.230469 6.25 23.617188 6.902344 23.386719 7.429688 C 23.128906 8.070312 21.542969 8.859375 20.824219 9.132812 C 19.796875 9.546875 19.832031 9.769531 18.925781 10.304688 C 18.164062 10.753906 17.421875 11.238281 16.660156 11.6875 Z M 16.660156 11.6875 "/></g></g></g><g fill="#466b3a" fill-opacity="1"><g transform="translate(98.960106, 268.369227)"><g><path d="M 12.144531 10.679688 C 12.144531 10.679688 12.140625 10.621094 12.105469 10.59375 C 11.914062 10.429688 11.667969 10.328125 11.472656 10.167969 C 11.3125 10.03125 11.179688 9.863281 11.046875 9.695312 C 10.917969 9.585938 10.84375 9.410156 10.714844 9.304688 C 10.582031 9.132812 10.480469 8.992188 10.347656 8.824219 L 9.722656 8.128906 C 9.550781 7.875 9.351562 7.59375 9.207031 7.304688 C 9.105469 7.164062 9.03125 6.992188 8.929688 6.851562 C 8.753906 6.535156 8.578125 6.222656 8.429688 5.875 C 8.292969 5.648438 8.148438 5.363281 8.066406 5.070312 C 7.882812 4.636719 7.722656 4.171875 7.566406 3.707031 C 7.441406 3.269531 7.28125 2.804688 7.183594 2.335938 L 7 1.574219 C 6.957031 1.425781 6.945312 1.25 6.929688 1.070312 C 6.914062 0.894531 6.933594 0.742188 6.890625 0.597656 C 6.886719 0.539062 6.824219 0.542969 6.820312 0.484375 C 6.789062 0.457031 6.90625 0.445312 6.902344 0.386719 C 6.898438 0.328125 6.800781 0.246094 6.792969 0.125 C 6.804688 -0.0820312 6.847656 -0.265625 6.828125 -0.503906 C 6.84375 -0.714844 6.734375 -0.914062 6.75 -1.125 L 6.804688 -1.90625 C 6.8125 -2.175781 6.820312 -2.445312 6.859375 -2.6875 L 7.050781 -3.628906 C 7.101562 -4.082031 7.25 -4.453125 7.363281 -4.910156 C 7.40625 -5.09375 7.511719 -5.28125 7.582031 -5.496094 L 7.890625 -6.445312 C 8.0625 -6.910156 8.238281 -7.3125 8.441406 -7.746094 C 8.546875 -7.933594 8.710938 -8.128906 8.839844 -8.347656 C 8.890625 -8.472656 8.933594 -8.652344 9.042969 -8.78125 C 9.066406 -8.875 9.210938 -8.914062 9.234375 -9.007812 C 9.289062 -9.070312 9.3125 -9.164062 9.367188 -9.226562 L 9.597656 -9.695312 C 9.703125 -9.824219 9.820312 -9.890625 9.867188 -10.015625 C 9.949219 -10.113281 10.097656 -10.152344 10.152344 -10.21875 C 10.175781 -10.25 10.199219 -10.339844 10.226562 -10.375 L 10.28125 -10.4375 C 10.363281 -10.535156 10.414062 -10.65625 10.496094 -10.753906 L 10.550781 -10.820312 C 10.601562 -10.882812 10.65625 -10.945312 10.710938 -11.011719 L 11.066406 -11.429688 C 11.230469 -11.621094 11.460938 -11.699219 11.625 -11.894531 C 11.792969 -12.027344 11.925781 -12.246094 12.09375 -12.378906 C 12.175781 -12.476562 12.292969 -12.484375 12.375 -12.582031 C 12.488281 -12.652344 12.597656 -12.78125 12.738281 -12.882812 C 12.933594 -13.046875 13.199219 -13.097656 13.394531 -13.265625 C 13.621094 -13.402344 13.8125 -13.628906 14.066406 -13.796875 C 14.292969 -13.9375 14.617188 -13.992188 14.847656 -14.128906 C 15.132812 -14.273438 15.355469 -14.472656 15.617188 -14.582031 C 15.816406 -14.6875 16.054688 -14.707031 16.285156 -14.789062 C 16.691406 -14.941406 17.058594 -15.179688 17.496094 -15.304688 C 17.875 -15.425781 18.253906 -15.546875 18.664062 -15.640625 C 18.929688 -15.691406 19.203125 -15.625 19.46875 -15.675781 C 19.648438 -15.691406 19.820312 -15.765625 19.996094 -15.78125 C 20.023438 -15.8125 20.019531 -15.871094 20.019531 -15.871094 C 20.316406 -15.898438 20.613281 -15.921875 20.914062 -15.886719 C 21.152344 -15.90625 21.417969 -15.957031 21.6875 -15.949219 C 21.804688 -15.960938 21.953125 -16 22.101562 -15.984375 L 22.441406 -15.863281 C 22.710938 -15.855469 22.980469 -15.847656 23.28125 -15.8125 C 23.609375 -15.808594 24 -15.8125 24.332031 -15.75 L 25.332031 -15.5625 C 25.699219 -15.472656 26.070312 -15.324219 26.441406 -15.175781 C 26.625 -15.132812 26.859375 -15.152344 27.015625 -15.074219 C 27.230469 -15.003906 27.417969 -14.898438 27.632812 -14.828125 C 28.191406 -14.574219 28.722656 -14.289062 29.230469 -13.972656 C 29.351562 -13.921875 29.535156 -13.878906 29.664062 -13.769531 C 29.820312 -13.691406 30.003906 -13.648438 30.164062 -13.511719 C 30.285156 -13.464844 30.386719 -13.320312 30.484375 -13.238281 C 30.574219 -13.21875 30.644531 -13.105469 30.769531 -13.054688 L 31.152344 -12.726562 C 31.1875 -12.699219 31.273438 -12.738281 31.304688 -12.710938 C 31.433594 -12.601562 31.5625 -12.492188 31.691406 -12.382812 L 31.753906 -12.328125 C 31.851562 -12.246094 32.007812 -12.171875 32.074219 -12.058594 C 32.234375 -11.921875 32.371094 -11.753906 32.53125 -11.617188 L 32.753906 -11.425781 C 32.824219 -11.3125 32.980469 -11.234375 33.082031 -11.09375 C 33.210938 -10.984375 33.257812 -10.78125 33.382812 -10.671875 C 33.585938 -10.390625 33.8125 -10.199219 34.015625 -9.917969 C 34.082031 -9.804688 34.210938 -9.695312 34.3125 -9.554688 C 34.582031 -9.214844 34.820312 -8.847656 35 -8.472656 C 35.105469 -8.273438 35.179688 -8.101562 35.28125 -7.960938 L 35.632812 -7.332031 C 35.742188 -7.070312 35.800781 -6.75 35.910156 -6.488281 C 36.027344 -6.167969 36.203125 -5.855469 36.289062 -5.503906 C 36.335938 -5.296875 36.476562 -5.070312 36.554688 -4.839844 C 36.605469 -4.574219 36.664062 -4.25 36.6875 -3.953125 L 36.796875 -3.363281 C 36.808594 -3.1875 36.824219 -3.007812 36.867188 -2.863281 C 36.886719 -2.625 36.902344 -2.449219 36.949219 -2.242188 L 37.007812 -1.859375 C 37.046875 -1.773438 36.964844 -1.675781 36.976562 -1.558594 C 36.984375 -1.4375 37.058594 -1.265625 37.074219 -1.085938 C 37.082031 -0.96875 37.066406 -0.816406 37.046875 -0.667969 C 37.03125 -0.515625 36.953125 -0.359375 36.96875 -0.183594 L 36.929688 0.449219 C 36.921875 0.71875 36.941406 0.953125 36.875 1.230469 L 36.839844 1.859375 C 36.792969 2.042969 36.753906 2.285156 36.683594 2.5 C 36.640625 2.742188 36.601562 2.984375 36.53125 3.199219 C 36.492188 3.441406 36.390625 3.6875 36.292969 3.9375 C 36.199219 4.242188 36.046875 4.554688 35.949219 4.859375 C 35.796875 5.171875 35.703125 5.476562 35.578125 5.757812 C 35.449219 6.035156 35.261719 6.261719 35.132812 6.539062 C 35.03125 6.730469 34.894531 6.890625 34.789062 7.078125 C 34.679688 7.207031 34.578125 7.394531 34.441406 7.554688 C 34.417969 7.644531 34.394531 7.738281 34.339844 7.800781 C 34.261719 7.898438 34.183594 8.054688 34.101562 8.148438 L 34.074219 8.183594 C 33.964844 8.308594 33.859375 8.5 33.726562 8.660156 C 33.675781 8.78125 33.496094 8.796875 33.386719 8.925781 C 33.28125 9.054688 33.234375 9.238281 33.097656 9.398438 C 32.988281 9.527344 32.855469 9.6875 32.714844 9.789062 C 32.632812 9.882812 32.542969 9.921875 32.429688 9.992188 L 32.242188 10.214844 C 32.160156 10.3125 32.042969 10.378906 31.929688 10.449219 L 31.632812 10.804688 C 31.492188 10.90625 31.316406 10.976562 31.148438 11.113281 C 30.867188 11.3125 30.617188 11.542969 30.363281 11.714844 C 30.109375 11.886719 29.847656 11.996094 29.59375 12.167969 C 29.453125 12.269531 29.339844 12.335938 29.199219 12.4375 L 28.652344 12.691406 C 28.304688 12.839844 27.964844 13.046875 27.558594 13.199219 C 27.265625 13.285156 26.972656 13.367188 26.65625 13.484375 C 26.363281 13.566406 26.074219 13.710938 25.785156 13.796875 C 25.519531 13.847656 25.308594 13.835938 25.078125 13.914062 C 24.871094 13.960938 24.671875 14.066406 24.464844 14.113281 C 24.289062 14.128906 24.140625 14.167969 23.996094 14.210938 C 23.878906 14.222656 23.753906 14.171875 23.636719 14.179688 C 23.339844 14.207031 23.046875 14.289062 22.777344 14.28125 C 22.632812 14.324219 22.476562 14.246094 22.324219 14.230469 C 22.207031 14.238281 22.09375 14.308594 22.03125 14.3125 C 21.882812 14.296875 21.730469 14.277344 21.582031 14.261719 L 20.773438 14.238281 C 20.410156 14.207031 20.078125 14.148438 19.742188 14.085938 C 19.5 14.042969 19.265625 14.0625 19.023438 14.023438 C 18.929688 14.003906 18.867188 13.949219 18.800781 13.894531 C 18.589844 13.878906 18.417969 13.953125 18.234375 13.910156 C 18.019531 13.839844 17.773438 13.738281 17.53125 13.699219 C 17.375 13.621094 17.214844 13.488281 17.03125 13.441406 C 16.570312 13.269531 16.109375 13.101562 15.640625 12.871094 C 15.269531 12.722656 14.867188 12.546875 14.523438 12.363281 C 14.269531 12.207031 14.046875 12.015625 13.828125 11.882812 L 13.261719 11.570312 C 13.167969 11.492188 13.015625 11.472656 12.917969 11.390625 C 12.796875 11.339844 12.695312 11.199219 12.597656 11.117188 C 12.410156 11.015625 12.304688 10.816406 12.144531 10.679688 Z M 16.316406 6.601562 C 17.179688 7.277344 18.183594 7.851562 19.34375 8.171875 C 20.382812 8.445312 21.546875 8.4375 22.765625 8.367188 C 23.980469 8.238281 25.121094 7.933594 26.125 7.402344 C 27.15625 6.902344 28.085938 6.195312 28.933594 5.261719 C 29.429688 4.742188 29.855469 4.109375 30.222656 3.480469 C 30.5 2.890625 30.714844 2.246094 30.871094 1.605469 C 31.125 0.65625 31.222656 -0.304688 31.175781 -1.226562 C 31.164062 -1.734375 31.152344 -2.242188 31.054688 -2.710938 C 30.902344 -3.445312 30.636719 -4.171875 30.3125 -4.832031 C 30.019531 -5.464844 29.675781 -6.035156 29.242188 -6.566406 C 28.84375 -7.070312 28.445312 -7.515625 27.964844 -7.925781 C 27.289062 -8.496094 26.535156 -8.972656 25.695312 -9.351562 C 24.988281 -9.621094 24.253906 -9.796875 23.496094 -9.945312 C 22.710938 -10.058594 21.988281 -10.121094 21.21875 -10.054688 C 20.328125 -9.980469 19.414062 -9.816406 18.574219 -9.480469 C 17.910156 -9.214844 17.316406 -8.835938 16.722656 -8.398438 C 16.046875 -7.925781 15.335938 -7.480469 14.816406 -6.867188 C 14.273438 -6.226562 13.917969 -5.480469 13.585938 -4.765625 C 13.230469 -4.019531 12.933594 -3.277344 12.792969 -2.460938 C 12.625 -1.609375 12.664062 -0.746094 12.734375 0.0859375 C 12.828125 0.882812 13.015625 1.703125 13.320312 2.515625 C 13.628906 3.328125 14.042969 4.007812 14.582031 4.742188 C 15.078125 5.328125 15.578125 5.972656 16.316406 6.601562 Z M 16.316406 6.601562 "/></g></g></g><g fill="#466b3a" fill-opacity="1"><g transform="translate(136.521667, 295.937185)"><g><path d="M 7.160156 2.605469 C 6.648438 2.414062 6.121094 2.265625 5.566406 2.058594 C 4.738281 1.753906 3.933594 1.5 3.105469 1.195312 C 3.027344 1.164062 2.9375 1.042969 2.871094 0.972656 C 2.792969 0.945312 2.675781 0.898438 2.679688 0.765625 C 2.695312 0.726562 2.707031 0.6875 2.683594 0.632812 L 2.738281 0.609375 C 2.753906 0.570312 2.804688 0.542969 2.804688 0.542969 C 2.820312 0.503906 2.742188 0.476562 2.742188 0.476562 L 2.796875 0.449219 C 2.8125 0.410156 2.824219 0.371094 2.824219 0.371094 L 2.84375 0.199219 C 3.210938 -0.789062 3.601562 -1.722656 3.964844 -2.707031 C 4.316406 -3.65625 4.71875 -4.628906 5.070312 -5.574219 C 5.4375 -6.5625 5.789062 -7.511719 6.152344 -8.5 L 7.21875 -11.382812 C 7.585938 -12.367188 7.855469 -13.34375 8.222656 -14.332031 L 9.289062 -17.214844 C 9.652344 -18.203125 10.042969 -19.136719 10.410156 -20.121094 C 10.757812 -21.070312 11.125 -22.058594 11.476562 -23.003906 L 12.554688 -25.925781 C 12.570312 -25.964844 12.625 -25.992188 12.601562 -26.046875 C 12.613281 -26.085938 12.589844 -26.140625 12.605469 -26.179688 C 12.621094 -26.21875 12.714844 -26.226562 12.714844 -26.226562 C 12.742188 -26.308594 12.730469 -26.402344 12.761719 -26.480469 C 12.828125 -26.542969 12.9375 -26.59375 13.03125 -26.605469 C 13.109375 -26.574219 13.164062 -26.601562 13.203125 -26.585938 L 13.441406 -26.496094 C 13.597656 -26.4375 13.765625 -26.289062 13.925781 -26.230469 C 14.636719 -25.964844 15.480469 -25.699219 16.175781 -25.394531 C 16.28125 -25.3125 16.289062 -25.21875 16.371094 -25.191406 C 17.167969 -24.804688 17.875 -24.40625 18.617188 -23.863281 C 19.230469 -23.457031 19.789062 -23.027344 20.359375 -22.5 C 20.421875 -22.433594 20.527344 -22.351562 20.535156 -22.257812 L 20.609375 -22.09375 C 20.636719 -22.039062 20.714844 -22.011719 20.792969 -21.980469 C 21 -21.816406 21.230469 -21.460938 21.410156 -21.214844 L 21.929688 -20.4375 C 22.019531 -20.316406 22.066406 -20.207031 22.15625 -20.085938 L 22.230469 -19.921875 C 22.371094 -19.691406 22.496094 -19.421875 22.605469 -19.109375 C 22.65625 -19.003906 22.640625 -18.964844 22.703125 -18.894531 C 22.753906 -18.785156 22.832031 -18.757812 22.914062 -18.726562 C 22.992188 -18.699219 23.125 -18.695312 23.292969 -18.902344 C 23.304688 -18.941406 23.296875 -19.035156 23.324219 -19.113281 C 23.570312 -19.652344 23.773438 -20.207031 23.976562 -20.757812 C 24.09375 -21.074219 24.238281 -21.335938 24.351562 -21.652344 C 24.367188 -21.691406 24.421875 -21.714844 24.4375 -21.753906 L 24.453125 -21.796875 C 24.453125 -21.796875 24.410156 -21.808594 24.410156 -21.808594 L 24.457031 -21.929688 C 24.46875 -21.96875 24.460938 -22.0625 24.527344 -22.125 C 24.558594 -22.203125 24.679688 -22.292969 24.773438 -22.304688 C 24.851562 -22.273438 24.878906 -22.222656 24.957031 -22.191406 C 25.628906 -21.945312 26.355469 -21.71875 27.066406 -21.457031 L 29.355469 -20.609375 C 29.433594 -20.582031 29.484375 -20.472656 29.546875 -20.402344 C 29.574219 -20.347656 29.613281 -20.335938 29.597656 -20.296875 C 29.609375 -20.203125 29.578125 -20.121094 29.550781 -20.042969 C 29.519531 -19.964844 29.570312 -19.855469 29.539062 -19.777344 C 29.058594 -18.472656 29.019531 -18.488281 28.539062 -17.1875 L 27.574219 -14.578125 C 27.089844 -13.277344 27.050781 -13.292969 26.570312 -11.988281 C 26.070312 -10.644531 26.152344 -10.617188 25.667969 -9.3125 C 24.792969 -6.945312 23.875 -4.589844 23 -2.21875 C 22.632812 -1.234375 22.230469 -0.261719 21.863281 0.726562 C 21.5 1.714844 21.199219 2.769531 20.832031 3.757812 C 20.46875 4.746094 20.0625 5.71875 19.695312 6.703125 C 19.667969 6.785156 19.664062 6.917969 19.648438 6.957031 C 19.550781 7.097656 19.390625 7.175781 19.214844 7.15625 L 18.953125 7.011719 C 18.402344 6.808594 17.863281 6.566406 17.308594 6.359375 C 16.519531 6.066406 15.675781 5.800781 14.847656 5.492188 C 14.769531 5.464844 14.703125 5.394531 14.625 5.367188 C 14.507812 5.324219 14.402344 5.238281 14.40625 5.105469 C 14.421875 5.066406 14.53125 5.015625 14.542969 4.976562 C 14.621094 4.648438 14.644531 4.339844 14.761719 4.027344 C 14.792969 3.945312 14.898438 3.898438 14.929688 3.816406 L 15.105469 3.34375 C 15.175781 3.148438 15.171875 2.921875 15.230469 2.761719 C 15.257812 2.683594 15.273438 2.644531 15.289062 2.605469 L 15.34375 2.578125 C 15.34375 2.578125 15.316406 2.523438 15.316406 2.523438 L 15.277344 2.511719 C 15.347656 2.445312 15.429688 2.34375 15.460938 2.261719 C 16.199219 0.0234375 16.976562 -2.203125 17.558594 -4.503906 C 17.589844 -4.582031 17.671875 -4.683594 17.660156 -4.777344 C 17.859375 -5.558594 17.925781 -6.34375 18.085938 -7.136719 L 18.097656 -7.175781 C 18.210938 -7.71875 18.335938 -8.300781 18.40625 -8.855469 C 18.429688 -9.164062 18.398438 -9.445312 18.40625 -9.710938 C 18.453125 -9.828125 18.359375 -9.816406 18.347656 -9.910156 C 18.382812 -10.125 18.480469 -10.265625 18.484375 -10.398438 C 18.496094 -11.160156 18.414062 -11.90625 18.332031 -12.65625 C 18.359375 -12.734375 18.359375 -12.734375 18.335938 -12.789062 C 18.316406 -12.976562 18.292969 -13.164062 18.273438 -13.351562 L 18.136719 -14.074219 C 18.152344 -14.113281 18.128906 -14.167969 18.101562 -14.222656 C 18.101562 -14.222656 18.0625 -14.238281 18.039062 -14.292969 L 17.988281 -14.398438 C 17.855469 -14.765625 17.800781 -15.230469 17.628906 -15.609375 C 17.617188 -15.703125 17.5 -15.746094 17.449219 -15.855469 L 17.375 -16.019531 C 17.277344 -16.234375 17.191406 -16.492188 17.027344 -16.777344 C 16.902344 -17.046875 16.722656 -17.292969 16.519531 -17.589844 C 16.417969 -17.675781 16.328125 -17.796875 16.238281 -17.921875 C 16.199219 -17.933594 16.214844 -17.972656 16.175781 -17.988281 C 16.148438 -18.042969 16.03125 -18.085938 15.953125 -18.117188 L 15.9375 -18.078125 C 15.820312 -18.121094 15.660156 -18.179688 15.578125 -18.074219 C 15.523438 -18.050781 15.558594 -17.902344 15.476562 -17.800781 C 15.371094 -17.523438 15.230469 -17.261719 15.113281 -16.945312 L 15.054688 -16.785156 C 14.71875 -15.878906 14.421875 -14.957031 14.085938 -14.046875 C 13.765625 -13.179688 13.390625 -12.285156 13.054688 -11.375 C 12.71875 -10.46875 12.421875 -9.546875 12.085938 -8.636719 C 11.765625 -7.769531 11.425781 -6.859375 11.089844 -5.953125 L 10.082031 -3.226562 C 9.761719 -2.359375 9.347656 -1.480469 9.011719 -0.570312 L 8.003906 2.152344 L 7.886719 2.46875 C 7.855469 2.546875 7.90625 2.65625 7.851562 2.679688 C 7.769531 2.785156 7.660156 2.835938 7.542969 2.789062 C 7.410156 2.785156 7.25 2.726562 7.132812 2.683594 Z M 7.160156 2.605469 "/></g></g></g><g fill="#466b3a" fill-opacity="1"><g transform="translate(171.82754, 306.671127)"><g><path d="M 6.847656 0.433594 L 4.164062 0.179688 L 1.472656 0.09375 L 1.265625 -0.00390625 L 1.070312 -0.226562 L 1.199219 -0.261719 L 1.3125 -0.761719 L 1.835938 -1.65625 L 2.039062 -2.191406 L 2.246094 -2.8125 L 2.394531 -3.179688 L 2.683594 -3.710938 L 2.789062 -4.042969 L 3.121094 -4.613281 L 3.363281 -5.144531 L 3.515625 -5.558594 L 3.765625 -6.132812 L 4.054688 -6.703125 L 4.398438 -7.484375 L 4.785156 -8.261719 L 4.984375 -8.753906 L 5.265625 -9.160156 L 5.382812 -9.699219 L 5.714844 -10.269531 L 6.144531 -11.085938 L 6.449219 -11.910156 L 6.796875 -12.691406 L 7.03125 -13.054688 L 7.191406 -13.636719 L 7.433594 -14.125 L 7.667969 -14.492188 L 7.917969 -15.066406 L 8.121094 -15.601562 L 8.355469 -16.007812 L 8.371094 -16.261719 L 8.898438 -17.238281 L 9.105469 -17.816406 L 9.492188 -18.59375 L 9.839844 -19.417969 L 10.226562 -20.191406 L 10.570312 -20.972656 L 10.8125 -21.503906 L 11.007812 -21.914062 L 11.296875 -22.445312 L 11.394531 -22.652344 L 11.460938 -23.027344 L 11.300781 -23.203125 L 11.054688 -23.304688 L 10.050781 -23.453125 L 7.523438 -23.527344 L 5.007812 -23.773438 L 4.792969 -23.660156 L 4.546875 -23.800781 L 4.347656 -23.984375 L 4.320312 -24.195312 L 4.546875 -26.460938 L 4.734375 -28.769531 L 4.664062 -28.984375 L 4.925781 -29.09375 L 5.179688 -29.121094 L 10.773438 -28.847656 L 13.585938 -28.628906 L 19.636719 -28.246094 L 19.707031 -28.03125 L 19.699219 -27.863281 L 19.542969 -27.40625 L 19.152344 -26.589844 L 19.042969 -26.214844 L 18.824219 -26.0625 L 18.625 -25.609375 L 18.457031 -24.945312 L 18.132812 -24.460938 L 17.984375 -24.132812 L 17.695312 -23.558594 L 17.589844 -23.226562 L 17.339844 -22.609375 L 17.203125 -22.449219 L 17.09375 -22.035156 L 16.808594 -21.546875 L 16.613281 -21.136719 L 16.367188 -20.605469 L 16.261719 -20.273438 L 16.074219 -19.949219 L 15.96875 -19.617188 L 15.816406 -19.246094 L 15.628906 -18.921875 L 15.292969 -18.3125 L 15.09375 -17.773438 L 14.898438 -17.40625 L 14.84375 -17.199219 L 14.542969 -16.460938 L 14.445312 -16.253906 L 14.214844 -15.933594 L 14.050781 -15.351562 L 13.863281 -15.027344 L 13.800781 -14.734375 L 13.574219 -14.453125 L 13.375 -13.960938 L 13.175781 -13.507812 L 13.035156 -13.308594 L 12.292969 -11.582031 L 12.1875 -11.207031 L 11.769531 -10.601562 L 11.597656 -9.9375 L 11.316406 -9.449219 L 10.929688 -8.671875 L 10.777344 -8.304688 L 10.640625 -8.101562 L 10.433594 -7.523438 L 10.144531 -6.949219 L 9.859375 -6.460938 L 9.746094 -6.003906 L 9.652344 -5.84375 L 9.453125 -5.347656 L 9.441406 -5.179688 L 9.757812 -4.867188 L 10.21875 -4.792969 L 15.351562 -4.554688 L 18.125 -4.378906 L 18.285156 -4.242188 L 18.359375 -4.109375 L 18.429688 -3.851562 L 18.140625 0.6875 L 18.085938 0.851562 L 17.820312 1.046875 L 17.691406 1.078125 L 17.527344 1.027344 L 14.878906 0.859375 L 12.1875 0.773438 L 9.539062 0.605469 L 9.542969 0.5625 Z M 6.847656 0.433594 "/></g></g></g><g fill="#466b3a" fill-opacity="1"><g transform="translate(205.294082, 307.02614)"><g><path d="M 15.289062 -18.503906 C 15.492188 -17.597656 15.734375 -16.703125 15.945312 -15.757812 C 16.148438 -14.855469 16.390625 -13.960938 16.589844 -13.054688 L 17.203125 -10.300781 C 17.40625 -9.398438 17.574219 -8.441406 17.777344 -7.539062 C 17.976562 -6.632812 18.136719 -5.722656 18.347656 -4.777344 C 18.367188 -4.695312 18.476562 -4.589844 18.503906 -4.464844 C 18.53125 -4.34375 18.402344 -4.140625 18.289062 -4.074219 L 18.125 -4.035156 C 17.847656 -3.929688 17.515625 -3.859375 17.230469 -3.792969 C 15.996094 -3.519531 14.785156 -3.335938 13.554688 -3.0625 C 13.429688 -3.035156 13.285156 -2.914062 13.152344 -2.929688 C 13.019531 -2.941406 12.898438 -3.089844 12.863281 -3.253906 C 12.796875 -3.367188 12.675781 -3.511719 12.648438 -3.636719 C 12.464844 -4.457031 12.332031 -5.25 12.148438 -6.070312 C 11.96875 -6.890625 11.875 -7.691406 11.691406 -8.511719 C 11.671875 -8.59375 11.613281 -8.667969 11.605469 -8.710938 C 11.535156 -8.824219 11.402344 -8.835938 11.3125 -8.859375 L 11.066406 -8.804688 C 9.628906 -8.484375 8.210938 -8.257812 6.816406 -7.945312 C 6.734375 -7.925781 6.652344 -7.910156 6.578125 -7.847656 C 6.453125 -7.820312 6.390625 -7.722656 6.417969 -7.597656 C 6.394531 -7.507812 6.421875 -7.382812 6.441406 -7.300781 C 6.53125 -6.890625 6.582031 -6.46875 6.664062 -6.101562 C 6.949219 -4.824219 7.273438 -3.5625 7.558594 -2.285156 C 7.574219 -2.203125 7.636719 -2.132812 7.652344 -2.050781 C 7.65625 -1.835938 7.519531 -1.675781 7.324219 -1.589844 C 7.160156 -1.550781 6.988281 -1.554688 6.824219 -1.519531 C 5.464844 -1.21875 4.101562 -0.957031 2.746094 -0.65625 C 2.621094 -0.625 2.496094 -0.597656 2.367188 -0.613281 C 2.234375 -0.625 2.089844 -0.679688 2.0625 -0.804688 C 1.996094 -0.917969 1.925781 -1.03125 1.898438 -1.15625 C 1.671875 -2.183594 1.441406 -3.210938 1.214844 -4.238281 L 0.527344 -7.320312 C 0.296875 -8.347656 0.152344 -9.394531 -0.078125 -10.421875 C -0.304688 -11.449219 -0.578125 -12.46875 -0.804688 -13.496094 C -1.023438 -14.480469 -1.253906 -15.507812 -1.484375 -16.535156 L -1.648438 -17.277344 C -1.652344 -17.492188 -1.699219 -17.695312 -1.703125 -17.910156 C -1.75 -18.117188 -1.761719 -18.371094 -1.808594 -18.578125 C -1.875 -19.078125 -1.945312 -19.582031 -1.921875 -20.0625 C -1.945312 -20.359375 -1.886719 -20.671875 -1.867188 -20.980469 C -1.859375 -21.328125 -1.839844 -21.632812 -1.789062 -21.988281 C -1.773438 -22.292969 -1.714844 -22.609375 -1.65625 -22.925781 C -1.609375 -23.109375 -1.644531 -23.273438 -1.601562 -23.453125 C -1.53125 -23.730469 -1.453125 -23.960938 -1.375 -24.195312 C -1.332031 -24.378906 -1.328125 -24.550781 -1.273438 -24.691406 C -1.21875 -24.835938 -1.113281 -24.945312 -1.058594 -25.085938 C -0.96875 -25.277344 -0.964844 -25.449219 -0.871094 -25.601562 L -0.570312 -26.1875 C -0.386719 -26.527344 -0.195312 -26.832031 0.0390625 -27.140625 C 0.132812 -27.292969 0.28125 -27.410156 0.386719 -27.519531 C 0.40625 -27.613281 0.421875 -27.746094 0.496094 -27.804688 C 0.632812 -27.964844 0.785156 -28.042969 0.921875 -28.199219 C 1.132812 -28.421875 1.285156 -28.710938 1.503906 -28.890625 L 1.828125 -29.179688 C 1.910156 -29.195312 1.992188 -29.214844 2.023438 -29.265625 C 2.136719 -29.335938 2.203125 -29.433594 2.316406 -29.503906 C 2.492188 -29.671875 2.714844 -29.851562 2.941406 -29.988281 C 3.085938 -30.105469 3.242188 -30.183594 3.398438 -30.261719 C 3.667969 -30.40625 3.9375 -30.554688 4.175781 -30.652344 C 4.515625 -30.855469 4.867188 -31.019531 5.179688 -31.175781 C 5.417969 -31.273438 5.671875 -31.285156 5.867188 -31.371094 C 6.03125 -31.410156 6.230469 -31.496094 6.394531 -31.53125 C 6.589844 -31.621094 6.835938 -31.675781 7.042969 -31.71875 C 7.320312 -31.824219 7.558594 -31.921875 7.84375 -31.984375 L 10.023438 -32.472656 C 10.648438 -32.566406 11.886719 -32.625 12.292969 -31.769531 C 12.683594 -30.992188 12.78125 -30.152344 12.964844 -29.328125 C 13.140625 -28.550781 13.304688 -27.808594 13.46875 -27.070312 L 13.535156 -26.78125 C 13.734375 -25.878906 13.902344 -24.921875 14.105469 -24.019531 C 14.308594 -23.113281 14.476562 -22.160156 14.675781 -21.257812 Z M 9.074219 -20.265625 C 8.882812 -21.128906 8.648438 -21.984375 8.457031 -22.847656 C 8.265625 -23.710938 8.03125 -24.566406 7.839844 -25.425781 L 7.8125 -25.550781 C 7.792969 -25.632812 7.773438 -25.714844 7.714844 -25.789062 C 7.613281 -25.851562 7.523438 -25.875 7.441406 -25.855469 C 7.316406 -25.828125 7.253906 -25.730469 7.171875 -25.710938 C 7.015625 -25.632812 6.894531 -25.605469 6.769531 -25.578125 C 6.542969 -25.441406 6.347656 -25.355469 6.148438 -25.265625 C 5.996094 -25.1875 5.847656 -25.070312 5.734375 -25 C 5.628906 -24.890625 5.464844 -24.855469 5.351562 -24.785156 C 5.058594 -24.550781 4.90625 -24.257812 4.675781 -23.945312 C 4.507812 -23.734375 4.335938 -23.527344 4.21875 -23.285156 C 4.109375 -23 4.058594 -22.644531 4 -22.328125 C 3.921875 -22.097656 3.835938 -21.90625 3.808594 -21.640625 C 3.757812 -21.285156 3.707031 -20.925781 3.699219 -20.582031 C 3.707031 -20.152344 3.75 -19.773438 3.800781 -19.351562 C 3.847656 -19.144531 3.933594 -18.949219 3.9375 -18.734375 L 4.082031 -18.078125 C 4.175781 -17.667969 4.183594 -17.238281 4.277344 -16.828125 L 4.925781 -13.910156 C 4.953125 -13.785156 5.011719 -13.710938 5.074219 -13.640625 C 5.101562 -13.515625 5.242188 -13.460938 5.324219 -13.480469 C 5.414062 -13.457031 5.496094 -13.476562 5.578125 -13.492188 C 6.976562 -13.804688 8.414062 -14.125 9.804688 -14.476562 C 9.886719 -14.496094 9.957031 -14.554688 10.039062 -14.574219 C 10.113281 -14.632812 10.144531 -14.683594 10.160156 -14.816406 L 10.164062 -14.988281 C 9.960938 -15.894531 9.851562 -16.773438 9.660156 -17.636719 Z M 9.074219 -20.265625 "/></g></g></g><g fill="#466b3a" fill-opacity="1"><g transform="translate(238.463322, 297.502413)"><g><path d="M -4.292969 -14.410156 C -4.8125 -15.421875 -5.296875 -16.453125 -5.816406 -17.464844 C -6.355469 -18.511719 -6.949219 -19.484375 -7.472656 -20.496094 C -7.992188 -21.503906 -8.472656 -22.535156 -8.996094 -23.546875 C -9.515625 -24.558594 -10.015625 -25.625 -10.539062 -26.636719 C -10.613281 -26.785156 -10.691406 -26.933594 -10.730469 -27.105469 C -10.734375 -27.292969 -10.699219 -27.5 -10.585938 -27.652344 C -10.511719 -27.691406 -10.398438 -27.75 -10.34375 -27.824219 C -10.195312 -27.902344 -10.027344 -27.941406 -9.875 -28.019531 C -9.050781 -28.441406 -8.246094 -28.902344 -7.425781 -29.328125 C -7.273438 -29.40625 -7.105469 -29.445312 -6.9375 -29.484375 C -6.785156 -29.464844 -6.578125 -29.527344 -6.484375 -29.433594 C -6.40625 -29.375 -6.40625 -29.28125 -6.367188 -29.207031 C -6.273438 -29.113281 -6.140625 -29.042969 -6.0625 -28.890625 L -4.695312 -26.234375 C -4.234375 -25.335938 -3.734375 -24.457031 -3.269531 -23.558594 C -2.808594 -22.660156 -2.382812 -21.742188 -1.921875 -20.84375 L -0.53125 -18.148438 C -0.0703125 -17.25 0.355469 -16.332031 0.816406 -15.433594 C 1.261719 -14.570312 1.796875 -13.710938 2.261719 -12.8125 C 2.722656 -11.914062 3.109375 -10.976562 3.574219 -10.078125 L 3.746094 -9.742188 C 3.804688 -9.628906 3.898438 -9.535156 3.957031 -9.425781 C 4.128906 -9.179688 4.300781 -8.9375 4.566406 -8.792969 C 4.777344 -8.660156 4.984375 -8.53125 5.210938 -8.554688 C 5.472656 -8.59375 5.660156 -8.691406 5.886719 -8.808594 L 5.960938 -8.84375 C 5.996094 -8.863281 6.109375 -8.828125 6.167969 -8.902344 C 6.203125 -8.921875 6.203125 -9.015625 6.238281 -9.035156 C 6.316406 -9.074219 6.410156 -9.078125 6.484375 -9.113281 C 6.972656 -9.367188 7.535156 -9.558594 8.019531 -9.8125 C 8.207031 -9.90625 8.355469 -9.984375 8.546875 -9.988281 C 8.734375 -9.988281 8.902344 -10.027344 8.996094 -9.933594 C 9.128906 -9.863281 9.207031 -9.710938 9.265625 -9.597656 C 9.417969 -9.394531 9.441406 -9.167969 9.554688 -8.945312 L 10.671875 -6.773438 C 10.75 -6.621094 10.882812 -6.453125 10.921875 -6.285156 C 10.984375 -5.984375 10.855469 -5.777344 10.632812 -5.566406 C 10.464844 -5.433594 10.292969 -5.394531 10.144531 -5.316406 C 9.019531 -4.738281 7.917969 -4.121094 6.792969 -3.542969 C 5.671875 -2.964844 4.53125 -2.332031 3.40625 -1.753906 C 3.292969 -1.695312 3.125 -1.65625 2.957031 -1.617188 C 2.804688 -1.539062 2.636719 -1.59375 2.445312 -1.6875 C 2.351562 -1.683594 2.296875 -1.796875 2.257812 -1.871094 C 2.160156 -1.964844 2.007812 -2.074219 1.953125 -2.1875 C 1.429688 -3.199219 0.984375 -4.25 0.464844 -5.257812 C -0.0742188 -6.308594 -0.632812 -7.300781 -1.152344 -8.308594 C -1.671875 -9.320312 -2.15625 -10.351562 -2.675781 -11.363281 C -3.214844 -12.410156 -3.773438 -13.402344 -4.292969 -14.410156 Z M -4.292969 -14.410156 "/></g></g></g><g fill="#466b3a" fill-opacity="1"><g transform="translate(262.10169, 283.889983)"><g><path d="M -9.234375 -12.222656 C -9.429688 -12.445312 -9.589844 -12.695312 -9.71875 -12.972656 C -9.933594 -12.898438 -10.769531 -14.628906 -10.898438 -14.90625 C -11.5625 -16.117188 -12.003906 -17.460938 -12.300781 -18.765625 C -12.382812 -19.308594 -12.492188 -19.882812 -12.515625 -20.421875 C -12.609375 -21.621094 -12.578125 -22.933594 -12.375 -24.113281 C -12.363281 -24.289062 -12.324219 -24.4375 -12.285156 -24.582031 C -12.28125 -24.640625 -12.242188 -24.730469 -12.265625 -24.820312 L -11.863281 -26.34375 C -11.828125 -26.429688 -11.699219 -26.542969 -11.691406 -26.660156 C -11.625 -26.773438 -11.582031 -26.921875 -11.515625 -27.035156 C -11.511719 -27.09375 -11.566406 -27.160156 -11.535156 -27.1875 C -11.5625 -27.21875 -11.503906 -27.214844 -11.472656 -27.242188 C -11.464844 -27.359375 -11.421875 -27.507812 -11.355469 -27.621094 C -11.347656 -27.742188 -11.253906 -27.824219 -11.242188 -27.941406 C -11.179688 -27.996094 -11.203125 -28.089844 -11.171875 -28.117188 C -11.070312 -28.316406 -10.9375 -28.488281 -10.867188 -28.664062 C -10.765625 -28.804688 -10.636719 -28.972656 -10.5625 -29.148438 C -10.5 -29.203125 -10.550781 -29.328125 -10.488281 -29.382812 C -10.484375 -29.441406 -10.417969 -29.496094 -10.355469 -29.550781 C -10.351562 -29.609375 -10.261719 -29.636719 -10.230469 -29.664062 C -10.191406 -29.75 -10.128906 -29.804688 -10.09375 -29.890625 C -10.03125 -29.945312 -10.023438 -30.066406 -9.984375 -30.152344 C -9.949219 -30.238281 -9.886719 -30.296875 -9.824219 -30.351562 L -9.324219 -31.0625 C -9.199219 -31.171875 -9.039062 -31.3125 -8.910156 -31.480469 C -8.8125 -31.5625 -8.773438 -31.710938 -8.675781 -31.792969 C -8.546875 -31.960938 -8.390625 -32.042969 -8.261719 -32.210938 C -7.9375 -32.546875 -7.507812 -32.753906 -7.039062 -32.605469 C -6.894531 -32.5625 -6.78125 -32.4375 -6.667969 -32.367188 C -6.132812 -31.882812 -5.632812 -31.371094 -5.164062 -30.832031 C -4.886719 -30.515625 -4.609375 -30.195312 -4.394531 -29.882812 C -3.902344 -29.25 -3.53125 -28.570312 -4.144531 -27.867188 L -4.273438 -27.753906 C -4.308594 -27.667969 -4.402344 -27.644531 -4.464844 -27.589844 L -4.824219 -27.105469 C -6.308594 -25.089844 -6.949219 -22.359375 -6.433594 -19.90625 C -6.386719 -19.726562 -6.273438 -19.597656 -6.226562 -19.414062 L -6.160156 -19.082031 C -6.105469 -19.019531 -6.015625 -19.042969 -5.988281 -19.011719 C -5.933594 -18.945312 -5.910156 -18.855469 -5.789062 -18.847656 C -5.703125 -18.8125 -5.582031 -18.804688 -5.492188 -18.828125 C -5.335938 -18.90625 -5.269531 -19.019531 -5.144531 -19.132812 C -5.015625 -19.242188 -4.828125 -19.347656 -4.703125 -19.457031 C -4.671875 -19.484375 -4.671875 -19.484375 -4.671875 -19.484375 L -4.574219 -19.570312 C -4.570312 -19.628906 -4.484375 -19.59375 -4.453125 -19.621094 C -3.847656 -20.144531 -3.246094 -20.667969 -2.667969 -21.226562 C -2.351562 -21.503906 -2.066406 -21.75 -1.808594 -22.03125 C -1.554688 -22.253906 -1.242188 -22.410156 -0.988281 -22.632812 L -0.925781 -22.6875 C -0.703125 -22.878906 -0.386719 -23.15625 -0.140625 -23.257812 C -0.0820312 -23.253906 -0.0820312 -23.253906 -0.046875 -23.28125 C 0.253906 -23.320312 0.546875 -23.242188 0.769531 -23.046875 C 0.914062 -22.945312 1.050781 -22.789062 1.160156 -22.660156 C 1.355469 -22.4375 1.574219 -22.183594 1.769531 -21.960938 L 2.792969 -20.785156 C 2.820312 -20.753906 2.816406 -20.695312 2.816406 -20.695312 C 2.84375 -20.664062 2.933594 -20.6875 2.988281 -20.625 C 3.292969 -20.273438 3.789062 -19.703125 3.695312 -19.171875 C 3.605469 -18.761719 3.378906 -18.507812 3.09375 -18.257812 C 2.902344 -18.09375 2.742188 -17.953125 2.523438 -17.820312 C 1.925781 -17.355469 1.34375 -16.738281 0.773438 -16.242188 C 0.136719 -15.6875 -0.492188 -15.195312 -1.097656 -14.671875 C -1.222656 -14.558594 -1.382812 -14.421875 -1.453125 -14.246094 C -1.523438 -14.132812 -1.53125 -14.015625 -1.507812 -13.921875 C -1.515625 -13.804688 -1.492188 -13.714844 -1.4375 -13.648438 C -1.382812 -13.585938 -1.359375 -13.496094 -1.269531 -13.460938 C -1.1875 -13.363281 -1.070312 -13.355469 -0.921875 -13.316406 C -0.894531 -13.285156 -0.867188 -13.25 -0.839844 -13.21875 L -0.285156 -13.03125 C -0.0234375 -12.925781 0.304688 -12.929688 0.597656 -12.851562 C 1.097656 -12.726562 1.542969 -12.726562 2.078125 -12.6875 C 2.289062 -12.703125 2.488281 -12.601562 2.726562 -12.582031 C 3.265625 -12.605469 3.9375 -12.796875 4.511719 -12.90625 C 5.300781 -13.089844 6.125 -13.363281 6.839844 -13.757812 C 6.929688 -13.78125 7.023438 -13.867188 7.121094 -13.949219 C 7.273438 -14.027344 7.402344 -14.136719 7.523438 -14.1875 C 7.710938 -14.296875 7.867188 -14.375 8.082031 -14.449219 C 8.203125 -14.5 8.320312 -14.492188 8.5 -14.480469 C 8.617188 -14.472656 8.710938 -14.496094 8.796875 -14.457031 C 9.03125 -14.382812 9.113281 -14.289062 9.195312 -14.191406 C 9.25 -14.128906 9.308594 -14.066406 9.363281 -14 L 9.472656 -13.875 C 9.726562 -13.648438 9.945312 -13.394531 10.167969 -13.140625 C 10.417969 -12.851562 10.636719 -12.597656 10.855469 -12.285156 C 11.074219 -12.03125 11.296875 -11.777344 11.484375 -11.496094 C 11.652344 -11.304688 11.933594 -11.046875 12.007812 -10.832031 C 12.0625 -10.769531 12.054688 -10.648438 12.078125 -10.558594 L 12.035156 -10.414062 C 12.03125 -10.351562 11.964844 -10.238281 11.933594 -10.210938 C 11.824219 -9.949219 11.695312 -9.78125 11.535156 -9.640625 C 11.410156 -9.53125 11.28125 -9.421875 11.128906 -9.402344 C 10.976562 -9.324219 10.875 -9.179688 10.75 -9.070312 C 10.53125 -8.9375 10.3125 -8.800781 10.097656 -8.726562 C 10.066406 -8.699219 10.03125 -8.613281 9.972656 -8.617188 C 9.84375 -8.507812 9.667969 -8.519531 9.511719 -8.441406 C 9.421875 -8.417969 9.378906 -8.269531 9.257812 -8.21875 C 9.070312 -8.113281 8.824219 -8.011719 8.609375 -7.933594 C 8.183594 -7.785156 7.726562 -7.667969 7.328125 -7.488281 C 6.957031 -7.335938 6.617188 -7.148438 6.25 -7.054688 C 6.160156 -7.03125 6.042969 -7.039062 6.050781 -7.160156 C 5.996094 -6.835938 4.355469 -6.800781 4.144531 -6.785156 C 3.960938 -6.738281 3.808594 -6.660156 3.597656 -6.644531 C 3.417969 -6.65625 3.207031 -6.640625 3 -6.625 C 2.578125 -6.59375 2.109375 -6.6875 1.660156 -6.6875 C 0.882812 -6.683594 -0.03125 -6.835938 -0.828125 -6.980469 L -1.382812 -7.109375 C -1.675781 -7.191406 -1.933594 -7.355469 -2.253906 -7.46875 C -2.402344 -7.507812 -2.519531 -7.515625 -2.667969 -7.558594 L -2.808594 -7.65625 C -3.277344 -7.808594 -3.800781 -7.964844 -4.207031 -8.171875 C -4.691406 -8.476562 -5.214844 -8.691406 -5.640625 -8.988281 L -6.011719 -9.222656 C -6.128906 -9.289062 -6.179688 -9.414062 -6.292969 -9.480469 C -6.433594 -9.582031 -6.519531 -9.675781 -6.628906 -9.804688 C -6.769531 -9.902344 -6.949219 -9.914062 -7.089844 -10.015625 C -7.289062 -10.179688 -7.453125 -10.367188 -7.652344 -10.53125 C -7.90625 -10.757812 -8.097656 -10.980469 -8.320312 -11.234375 C -8.628906 -11.523438 -8.933594 -11.875 -9.234375 -12.222656 Z M -9.234375 -12.222656 "/></g></g></g><g fill="#466b3a" fill-opacity="1"><g transform="translate(284.705743, 262.092321)"><g><path d="M 3.808594 -5.710938 L 2.242188 -3.515625 L 0.816406 -1.226562 L 0.632812 -1.097656 L 0.339844 -1.039062 L 0.375 -1.167969 L 0 -1.519531 L -0.511719 -2.417969 L -0.875 -2.863281 L -1.308594 -3.351562 L -1.550781 -3.667969 L -1.867188 -4.179688 L -2.101562 -4.4375 L -2.425781 -5.011719 L -2.765625 -5.488281 L -3.046875 -5.828125 L -3.417969 -6.332031 L -3.769531 -6.867188 L -4.273438 -7.558594 L -4.75 -8.28125 L -5.078125 -8.703125 L -5.285156 -9.144531 L -5.695312 -9.519531 L -6.023438 -10.089844 L -6.511719 -10.875 L -7.074219 -11.550781 L -7.574219 -12.242188 L -7.773438 -12.625 L -8.195312 -13.058594 L -8.496094 -13.515625 L -8.695312 -13.898438 L -9.070312 -14.402344 L -9.429688 -14.84375 L -9.664062 -15.253906 L -9.875 -15.394531 L -10.457031 -16.339844 L -10.855469 -16.808594 L -11.332031 -17.53125 L -11.871094 -18.246094 L -12.347656 -18.96875 L -12.851562 -19.65625 L -13.1875 -20.136719 L -13.445312 -20.511719 L -13.761719 -21.023438 L -13.890625 -21.210938 L -14.179688 -21.457031 L -14.414062 -21.410156 L -14.625 -21.246094 L -15.257812 -20.453125 L -16.589844 -18.304688 L -18.058594 -16.25 L -18.070312 -16.003906 L -18.316406 -15.863281 L -18.574219 -15.78125 L -18.773438 -15.863281 L -20.617188 -17.195312 L -22.519531 -18.515625 L -22.742188 -18.5625 L -22.707031 -18.84375 L -22.601562 -19.078125 L -19.5625 -23.78125 L -17.964844 -26.105469 L -14.597656 -31.148438 L -14.378906 -31.101562 L -14.238281 -31.007812 L -13.921875 -30.648438 L -13.40625 -29.898438 L -13.140625 -29.621094 L -13.117188 -29.351562 L -12.824219 -28.953125 L -12.335938 -28.472656 L -12.078125 -27.949219 L -11.867188 -27.65625 L -11.515625 -27.121094 L -11.285156 -26.863281 L -10.875 -26.335938 L -10.804688 -26.136719 L -10.5 -25.835938 L -10.222656 -25.34375 L -9.964844 -24.96875 L -9.625 -24.492188 L -9.394531 -24.234375 L -9.207031 -23.90625 L -8.972656 -23.652344 L -8.726562 -23.335938 L -8.539062 -23.007812 L -8.179688 -22.414062 L -7.816406 -21.96875 L -7.59375 -21.617188 L -7.445312 -21.464844 L -6.953125 -20.835938 L -6.824219 -20.648438 L -6.660156 -20.285156 L -6.242188 -19.855469 L -6.054688 -19.527344 L -5.832031 -19.328125 L -5.703125 -18.988281 L -5.378906 -18.570312 L -5.085938 -18.171875 L -4.980469 -17.949219 L -3.859375 -16.445312 L -3.589844 -16.164062 L -3.277344 -15.496094 L -2.785156 -15.019531 L -2.507812 -14.527344 L -2.027344 -13.804688 L -1.78125 -13.488281 L -1.675781 -13.265625 L -1.28125 -12.800781 L -0.929688 -12.261719 L -0.648438 -11.769531 L -0.3125 -11.445312 L -0.21875 -11.28125 L 0.109375 -10.859375 L 0.25 -10.765625 L 0.679688 -10.882812 L 0.972656 -11.246094 L 3.753906 -15.566406 L 5.296875 -17.878906 L 5.496094 -17.945312 L 5.644531 -17.945312 L 5.902344 -17.875 L 9.6875 -15.351562 L 9.800781 -15.226562 L 9.835938 -14.898438 L 9.800781 -14.769531 L 9.675781 -14.652344 L 8.203125 -12.445312 L 6.777344 -10.15625 L 5.304688 -7.949219 L 5.269531 -7.972656 Z M 3.808594 -5.710938 "/></g></g></g></svg>